<svg xmlns="http://www.w3.org/2000/svg" xmlns:xlink="http://www.w3.org/1999/xlink" width="4199" zoomAndPan="magnify" viewBox="0 0 3149.25 1250.250007" height="1667" preserveAspectRatio="xMidYMid meet" version="1.0"><defs><g/><clipPath id="479997a6ef"><path d="M 1526.78125 3.238281 L 1649.722656 3.238281 L 1649.722656 868.144531 L 1526.78125 868.144531 Z M 1526.78125 3.238281 " clip-rule="nonzero"/></clipPath><clipPath id="02cd269781"><path d="M 1529.78125 3.238281 L 1646.722656 3.238281 C 1648.378906 3.238281 1649.722656 4.578125 1649.722656 6.234375 L 1649.722656 865.117188 C 1649.722656 866.773438 1648.378906 868.113281 1646.722656 868.113281 L 1529.78125 868.113281 C 1528.125 868.113281 1526.78125 866.773438 1526.78125 865.117188 L 1526.78125 6.234375 C 1526.78125 4.578125 1528.125 3.238281 1529.78125 3.238281 Z M 1529.78125 3.238281 " clip-rule="nonzero"/></clipPath><clipPath id="21b2689562"><path d="M 0.78125 0.238281 L 123.722656 0.238281 L 123.722656 865.144531 L 0.78125 865.144531 Z M 0.78125 0.238281 " clip-rule="nonzero"/></clipPath><clipPath id="4aca2cbffb"><path d="M 3.78125 0.238281 L 120.722656 0.238281 C 122.378906 0.238281 123.722656 1.578125 123.722656 3.234375 L 123.722656 862.117188 C 123.722656 863.773438 122.378906 865.113281 120.722656 865.113281 L 3.78125 865.113281 C 2.125 865.113281 0.78125 863.773438 0.78125 862.117188 L 0.78125 3.234375 C 0.78125 1.578125 2.125 0.238281 3.78125 0.238281 Z M 3.78125 0.238281 " clip-rule="nonzero"/></clipPath><clipPath id="cfa6851d3a"><rect x="0" width="124" y="0" height="866"/></clipPath><clipPath id="081999c912"><path d="M 1768.929688 125.367188 L 1891.871094 125.367188 L 1891.871094 743.429688 L 1768.929688 743.429688 Z M 1768.929688 125.367188 " clip-rule="nonzero"/></clipPath><clipPath id="d067b2fc9c"><path d="M 1773.429688 125.367188 L 1887.375 125.367188 C 1888.566406 125.367188 1889.710938 125.839844 1890.554688 126.683594 C 1891.398438 127.527344 1891.871094 128.671875 1891.871094 129.863281 L 1891.871094 738.667969 C 1891.871094 739.859375 1891.398438 741.003906 1890.554688 741.847656 C 1889.710938 742.691406 1888.566406 743.164062 1887.375 743.164062 L 1773.429688 743.164062 C 1772.234375 743.164062 1771.089844 742.691406 1770.25 741.847656 C 1769.40625 741.003906 1768.929688 739.859375 1768.929688 738.667969 L 1768.929688 129.863281 C 1768.929688 128.671875 1769.40625 127.527344 1770.25 126.683594 C 1771.089844 125.839844 1772.234375 125.367188 1773.429688 125.367188 Z M 1773.429688 125.367188 " clip-rule="nonzero"/></clipPath><clipPath id="3e39140387"><path d="M 0.929688 0.367188 L 123.871094 0.367188 L 123.871094 618 L 0.929688 618 Z M 0.929688 0.367188 " clip-rule="nonzero"/></clipPath><clipPath id="e164f1573f"><path d="M 5.429688 0.367188 L 119.375 0.367188 C 120.566406 0.367188 121.710938 0.839844 122.554688 1.683594 C 123.398438 2.527344 123.871094 3.671875 123.871094 4.863281 L 123.871094 613.667969 C 123.871094 614.859375 123.398438 616.003906 122.554688 616.847656 C 121.710938 617.691406 120.566406 618.164062 119.375 618.164062 L 5.429688 618.164062 C 4.234375 618.164062 3.089844 617.691406 2.25 616.847656 C 1.40625 616.003906 0.929688 614.859375 0.929688 613.667969 L 0.929688 4.863281 C 0.929688 3.671875 1.40625 2.527344 2.25 1.683594 C 3.089844 0.839844 4.234375 0.367188 5.429688 0.367188 Z M 5.429688 0.367188 " clip-rule="nonzero"/></clipPath><clipPath id="f64ce184e3"><rect x="0" width="124" y="0" height="619"/></clipPath><clipPath id="0b3dc321f8"><path d="M 2196.066406 125.367188 L 2319.003906 125.367188 L 2319.003906 743.164062 L 2196.066406 743.164062 Z M 2196.066406 125.367188 " clip-rule="nonzero"/></clipPath><clipPath id="360a115adb"><path d="M 0.0664062 0.367188 L 123.003906 0.367188 L 123.003906 618 L 0.0664062 618 Z M 0.0664062 0.367188 " clip-rule="nonzero"/></clipPath><clipPath id="d1c35a4200"><rect x="0" width="124" y="0" height="619"/></clipPath><clipPath id="fff92a7148"><path d="M 2429.0625 3.238281 L 2551.976562 3.238281 L 2551.976562 867.9375 L 2429.0625 867.9375 Z M 2429.0625 3.238281 " clip-rule="nonzero"/></clipPath><clipPath id="9e2f8af641"><path d="M 2551.976562 6.234375 L 2551.976562 864.730469 C 2551.976562 866.386719 2550.632812 867.730469 2548.976562 867.730469 L 2432.0625 867.730469 C 2430.40625 867.730469 2429.0625 866.386719 2429.0625 864.730469 L 2429.0625 6.234375 C 2429.0625 4.578125 2430.40625 3.238281 2432.0625 3.238281 L 2548.976562 3.238281 C 2550.632812 3.238281 2551.976562 4.578125 2551.976562 6.234375 Z M 2551.976562 6.234375 " clip-rule="nonzero"/></clipPath><clipPath id="38cf1f24c8"><path d="M 0.0625 0.238281 L 122.976562 0.238281 L 122.976562 864.800781 L 0.0625 864.800781 Z M 0.0625 0.238281 " clip-rule="nonzero"/></clipPath><clipPath id="4195dc486d"><path d="M 122.976562 3.234375 L 122.976562 861.730469 C 122.976562 863.386719 121.632812 864.730469 119.976562 864.730469 L 3.0625 864.730469 C 1.40625 864.730469 0.0625 863.386719 0.0625 861.730469 L 0.0625 3.234375 C 0.0625 1.578125 1.40625 0.238281 3.0625 0.238281 L 119.976562 0.238281 C 121.632812 0.238281 122.976562 1.578125 122.976562 3.234375 Z M 122.976562 3.234375 " clip-rule="nonzero"/></clipPath><clipPath id="47485f526e"><rect x="0" width="123" y="0" height="865"/></clipPath><clipPath id="9bd9d97d9c"><path d="M 2881.949219 3.238281 L 3004.890625 3.238281 L 3004.890625 869 L 2881.949219 869 Z M 2881.949219 3.238281 " clip-rule="nonzero"/></clipPath><clipPath id="d5fd8c2afb"><path d="M 2884.949219 3.238281 L 3001.890625 3.238281 C 3003.546875 3.238281 3004.890625 4.578125 3004.890625 6.234375 L 3004.890625 865.921875 C 3004.890625 867.578125 3003.546875 868.921875 3001.890625 868.921875 L 2884.949219 868.921875 C 2883.292969 868.921875 2881.949219 867.578125 2881.949219 865.921875 L 2881.949219 6.234375 C 2881.949219 4.578125 2883.292969 3.238281 2884.949219 3.238281 Z M 2884.949219 3.238281 " clip-rule="nonzero"/></clipPath><clipPath id="2509c84410"><path d="M 0.949219 0.238281 L 123.890625 0.238281 L 123.890625 866 L 0.949219 866 Z M 0.949219 0.238281 " clip-rule="nonzero"/></clipPath><clipPath id="4349f43b80"><path d="M 3.949219 0.238281 L 120.890625 0.238281 C 122.546875 0.238281 123.890625 1.578125 123.890625 3.234375 L 123.890625 862.921875 C 123.890625 864.578125 122.546875 865.921875 120.890625 865.921875 L 3.949219 865.921875 C 2.292969 865.921875 0.949219 864.578125 0.949219 862.921875 L 0.949219 3.234375 C 0.949219 1.578125 2.292969 0.238281 3.949219 0.238281 Z M 3.949219 0.238281 " clip-rule="nonzero"/></clipPath><clipPath id="a1e23e8f82"><rect x="0" width="124" y="0" height="866"/></clipPath><clipPath id="a232adbc74"><path d="M 1891.871094 743.972656 L 2196.066406 743.972656 L 2196.066406 866.914062 L 1891.871094 866.914062 Z M 1891.871094 743.972656 " clip-rule="nonzero"/></clipPath><clipPath id="9fe5efcb4c"><path d="M 0.871094 0.972656 L 305 0.972656 L 305 123.914062 L 0.871094 123.914062 Z M 0.871094 0.972656 " clip-rule="nonzero"/></clipPath><clipPath id="430a21145d"><rect x="0" width="306" y="0" height="124"/></clipPath><clipPath id="9df5ae0228"><path d="M 2446 0 L 2990 0 L 2990 871 L 2446 871 Z M 2446 0 " clip-rule="nonzero"/></clipPath><clipPath id="62ec53494c"><path d="M 2446.25 58.035156 L 2554.628906 0 L 2989.9375 812.949219 L 2881.558594 870.984375 Z M 2446.25 58.035156 " clip-rule="nonzero"/></clipPath><clipPath id="9ec458248e"><path d="M 0.140625 0 L 544 0 L 544 871 L 0.140625 871 Z M 0.140625 0 " clip-rule="nonzero"/></clipPath><clipPath id="2187462118"><path d="M 0.25 58.035156 L 108.628906 0 L 543.9375 812.949219 L 435.558594 870.984375 Z M 0.25 58.035156 " clip-rule="nonzero"/></clipPath><clipPath id="a93cc64740"><rect x="0" width="544" y="0" height="871"/></clipPath><clipPath id="f4b64fae7d"><path d="M 1891.871094 2.421875 L 2196.066406 2.421875 L 2196.066406 125.363281 L 1891.871094 125.363281 Z M 1891.871094 2.421875 " clip-rule="nonzero"/></clipPath><clipPath id="e5924ccd52"><path d="M 0.871094 0.421875 L 305 0.421875 L 305 123.363281 L 0.871094 123.363281 Z M 0.871094 0.421875 " clip-rule="nonzero"/></clipPath><clipPath id="a3b9dcb0c0"><rect x="0" width="306" y="0" height="124"/></clipPath><clipPath id="3c6464ec70"><path d="M 1769.488281 2.203125 L 1894 2.203125 L 1894 132 L 1769.488281 132 Z M 1769.488281 2.203125 " clip-rule="nonzero"/></clipPath><clipPath id="1e7f76f68c"><path d="M 1769.488281 131.601562 C 1769.488281 97.652344 1782.769531 64.453125 1805.957031 40.445312 C 1829.144531 16.441406 1861.210938 2.6875 1894 2.6875 L 1894 68.457031 C 1877.9375 68.457031 1862.230469 75.191406 1850.875 86.949219 C 1839.515625 98.710938 1833.011719 114.96875 1833.011719 131.601562 Z M 1769.488281 131.601562 " clip-rule="nonzero"/></clipPath><clipPath id="a044997ed7"><path d="M 0.488281 0.636719 L 125 0.636719 L 125 129.679688 L 0.488281 129.679688 Z M 0.488281 0.636719 " clip-rule="nonzero"/></clipPath><clipPath id="36bb47119d"><path d="M 0.488281 129.601562 C 0.488281 95.652344 13.769531 62.453125 36.957031 38.445312 C 60.144531 14.441406 92.210938 0.6875 125 0.6875 L 125 66.457031 C 108.9375 66.457031 93.230469 73.191406 81.875 84.949219 C 70.515625 96.710938 64.011719 112.96875 64.011719 129.601562 Z M 0.488281 129.601562 " clip-rule="nonzero"/></clipPath><clipPath id="707d753a16"><rect x="0" width="125" y="0" height="130"/></clipPath><clipPath id="7e479ec8ed"><path d="M 1844.863281 80.980469 L 1937.449219 80.980469 L 1937.449219 167.484375 L 1844.863281 167.484375 Z M 1844.863281 80.980469 " clip-rule="nonzero"/></clipPath><clipPath id="3e0b23388e"><path d="M 1844.863281 167.484375 C 1844.863281 144.703125 1854.714844 122.425781 1871.914062 106.316406 C 1889.113281 90.207031 1912.898438 80.980469 1937.21875 80.980469 L 1937.21875 125.109375 C 1925.304688 125.109375 1913.65625 129.628906 1905.230469 137.519531 C 1896.804688 145.410156 1891.980469 156.324219 1891.980469 167.484375 Z M 1844.863281 167.484375 " clip-rule="nonzero"/></clipPath><clipPath id="4b90bf1714"><path d="M 0.863281 0.980469 L 93.40625 0.980469 L 93.40625 87.484375 L 0.863281 87.484375 Z M 0.863281 0.980469 " clip-rule="nonzero"/></clipPath><clipPath id="207dce9db0"><path d="M 0.863281 87.484375 C 0.863281 64.703125 10.714844 42.425781 27.914062 26.316406 C 45.113281 10.207031 68.898438 0.980469 93.21875 0.980469 L 93.21875 45.109375 C 81.304688 45.109375 69.65625 49.628906 61.230469 57.519531 C 52.804688 65.410156 47.980469 76.324219 47.980469 87.484375 Z M 0.863281 87.484375 " clip-rule="nonzero"/></clipPath><clipPath id="a811e51c29"><rect x="0" width="94" y="0" height="88"/></clipPath><clipPath id="ccb140dbe4"><path d="M 1825.527344 54.457031 L 1918 54.457031 L 1918 140.960938 L 1825.527344 140.960938 Z M 1825.527344 54.457031 " clip-rule="nonzero"/></clipPath><clipPath id="32803f64e2"><path d="M 1825.527344 140.960938 C 1825.527344 118.179688 1835.378906 95.902344 1852.578125 79.792969 C 1869.777344 63.683594 1893.558594 54.457031 1917.882812 54.457031 L 1917.882812 98.585938 C 1905.96875 98.585938 1894.316406 103.109375 1885.894531 111 C 1877.46875 118.890625 1872.644531 129.800781 1872.644531 140.960938 Z M 1825.527344 140.960938 " clip-rule="nonzero"/></clipPath><clipPath id="73d93c7c68"><path d="M 0.527344 0.457031 L 92.980469 0.457031 L 92.980469 86.960938 L 0.527344 86.960938 Z M 0.527344 0.457031 " clip-rule="nonzero"/></clipPath><clipPath id="c9cd96c2ab"><path d="M 0.527344 86.960938 C 0.527344 64.179688 10.378906 41.902344 27.578125 25.792969 C 44.777344 9.683594 68.558594 0.457031 92.882812 0.457031 L 92.882812 44.585938 C 80.96875 44.585938 69.316406 49.109375 60.894531 57 C 52.46875 64.890625 47.644531 75.800781 47.644531 86.960938 Z M 0.527344 86.960938 " clip-rule="nonzero"/></clipPath><clipPath id="44a183cdb8"><rect x="0" width="93" y="0" height="87"/></clipPath><clipPath id="6adbf1ebbb"><path d="M 1769 742.402344 L 1898.863281 742.402344 L 1898.863281 866.914062 L 1769 866.914062 Z M 1769 742.402344 " clip-rule="nonzero"/></clipPath><clipPath id="887d1cebd1"><path d="M 1898.398438 866.914062 C 1864.449219 866.914062 1831.25 853.632812 1807.242188 830.445312 C 1783.238281 807.257812 1769.484375 775.191406 1769.484375 742.402344 L 1835.253906 742.402344 C 1835.253906 758.464844 1841.988281 774.167969 1853.746094 785.527344 C 1865.507812 796.886719 1881.769531 803.390625 1898.398438 803.390625 Z M 1898.398438 866.914062 " clip-rule="nonzero"/></clipPath><clipPath id="e0ecabc2c8"><path d="M 0.269531 0.402344 L 129.550781 0.402344 L 129.550781 124.914062 L 0.269531 124.914062 Z M 0.269531 0.402344 " clip-rule="nonzero"/></clipPath><clipPath id="ce34ab5eed"><path d="M 129.398438 124.914062 C 95.449219 124.914062 62.25 111.632812 38.242188 88.445312 C 14.238281 65.257812 0.484375 33.191406 0.484375 0.402344 L 66.253906 0.402344 C 66.253906 16.464844 72.988281 32.167969 84.746094 43.527344 C 96.507812 54.886719 112.769531 61.390625 129.398438 61.390625 Z M 129.398438 124.914062 " clip-rule="nonzero"/></clipPath><clipPath id="fdf4dc2afe"><rect x="0" width="130" y="0" height="125"/></clipPath><clipPath id="461ef88f39"><path d="M 1847.773438 699 L 1934.277344 699 L 1934.277344 791.535156 L 1847.773438 791.535156 Z M 1847.773438 699 " clip-rule="nonzero"/></clipPath><clipPath id="94d559ac96"><path d="M 1934.277344 791.535156 C 1911.496094 791.535156 1889.21875 781.683594 1873.109375 764.484375 C 1857 747.285156 1847.773438 723.503906 1847.773438 699.179688 L 1891.90625 699.179688 C 1891.90625 711.09375 1896.425781 722.742188 1904.316406 731.167969 C 1912.207031 739.59375 1923.121094 744.417969 1934.277344 744.417969 Z M 1934.277344 791.535156 " clip-rule="nonzero"/></clipPath><clipPath id="59541e0791"><path d="M 0.773438 0 L 87.277344 0 L 87.277344 92.535156 L 0.773438 92.535156 Z M 0.773438 0 " clip-rule="nonzero"/></clipPath><clipPath id="53740d9102"><path d="M 87.277344 92.535156 C 64.496094 92.535156 42.21875 82.683594 26.109375 65.484375 C 10 48.285156 0.773438 24.503906 0.773438 0.179688 L 44.90625 0.179688 C 44.90625 12.09375 49.425781 23.742188 57.316406 32.167969 C 65.207031 40.59375 76.121094 45.417969 87.277344 45.417969 Z M 87.277344 92.535156 " clip-rule="nonzero"/></clipPath><clipPath id="ee89c040d2"><rect x="0" width="88" y="0" height="93"/></clipPath><clipPath id="92803abdc0"><path d="M 1821.25 718.285156 L 1907.757812 718.285156 L 1907.757812 810.871094 L 1821.25 810.871094 Z M 1821.25 718.285156 " clip-rule="nonzero"/></clipPath><clipPath id="94e881f566"><path d="M 1907.757812 810.871094 C 1884.972656 810.871094 1862.699219 801.019531 1846.589844 783.824219 C 1830.480469 766.625 1821.25 742.839844 1821.25 718.515625 L 1865.382812 718.515625 C 1865.382812 730.429688 1869.902344 742.082031 1877.792969 750.503906 C 1885.683594 758.929688 1896.597656 763.757812 1907.757812 763.757812 Z M 1907.757812 810.871094 " clip-rule="nonzero"/></clipPath><clipPath id="7a8e39e092"><path d="M 0.25 0.367188 L 86.757812 0.367188 L 86.757812 92.871094 L 0.25 92.871094 Z M 0.25 0.367188 " clip-rule="nonzero"/></clipPath><clipPath id="6a4fc544aa"><path d="M 86.757812 92.871094 C 63.972656 92.871094 41.699219 83.019531 25.589844 65.824219 C 9.480469 48.625 0.25 24.839844 0.25 0.515625 L 44.382812 0.515625 C 44.382812 12.429688 48.902344 24.082031 56.792969 32.503906 C 64.683594 40.929688 75.597656 45.757812 86.757812 45.757812 Z M 86.757812 92.871094 " clip-rule="nonzero"/></clipPath><clipPath id="7c8b24c041"><rect x="0" width="87" y="0" height="93"/></clipPath><clipPath id="4aee543311"><path d="M 2194.488281 738 L 2319 738 L 2319 867 L 2194.488281 867 Z M 2194.488281 738 " clip-rule="nonzero"/></clipPath><clipPath id="7df2baa6ac"><path d="M 2319 738.003906 C 2319 771.953125 2305.71875 805.152344 2282.53125 829.15625 C 2259.34375 853.164062 2227.277344 866.914062 2194.488281 866.914062 L 2194.488281 801.148438 C 2210.550781 801.148438 2226.257812 794.414062 2237.613281 782.65625 C 2248.972656 770.894531 2255.476562 754.632812 2255.476562 738.003906 Z M 2319 738.003906 " clip-rule="nonzero"/></clipPath><clipPath id="94b03aa69f"><path d="M 0.488281 0 L 125 0 L 125 129 L 0.488281 129 Z M 0.488281 0 " clip-rule="nonzero"/></clipPath><clipPath id="4062889cdd"><path d="M 125 0.00390625 C 125 33.953125 111.71875 67.152344 88.53125 91.15625 C 65.34375 115.164062 33.277344 128.914062 0.488281 128.914062 L 0.488281 63.148438 C 16.550781 63.148438 32.257812 56.414062 43.613281 44.65625 C 54.972656 32.894531 61.476562 16.632812 61.476562 0.00390625 Z M 125 0.00390625 " clip-rule="nonzero"/></clipPath><clipPath id="c528207ee1"><rect x="0" width="125" y="0" height="129"/></clipPath><clipPath id="4870e6c1f7"><path d="M 2151.035156 702.121094 L 2243.621094 702.121094 L 2243.621094 788.625 L 2151.035156 788.625 Z M 2151.035156 702.121094 " clip-rule="nonzero"/></clipPath><clipPath id="1e0ccd3aed"><path d="M 2243.621094 702.121094 C 2243.621094 724.902344 2233.769531 747.179688 2216.570312 763.289062 C 2199.371094 779.398438 2175.589844 788.625 2151.265625 788.625 L 2151.265625 744.492188 C 2163.179688 744.492188 2174.828125 739.972656 2183.253906 732.082031 C 2191.679688 724.191406 2196.503906 713.28125 2196.503906 702.121094 Z M 2243.621094 702.121094 " clip-rule="nonzero"/></clipPath><clipPath id="7502ef01a6"><path d="M 0.117188 0.121094 L 92.621094 0.121094 L 92.621094 86.625 L 0.117188 86.625 Z M 0.117188 0.121094 " clip-rule="nonzero"/></clipPath><clipPath id="488191fea3"><path d="M 92.621094 0.121094 C 92.621094 22.902344 82.769531 45.179688 65.570312 61.289062 C 48.371094 77.398438 24.589844 86.625 0.265625 86.625 L 0.265625 42.492188 C 12.179688 42.492188 23.828125 37.972656 32.253906 30.082031 C 40.679688 22.191406 45.503906 11.28125 45.503906 0.121094 Z M 92.621094 0.121094 " clip-rule="nonzero"/></clipPath><clipPath id="f8618cf047"><rect x="0" width="93" y="0" height="87"/></clipPath><clipPath id="29875911c4"><path d="M 2170.371094 728.644531 L 2262.957031 728.644531 L 2262.957031 815.148438 L 2170.371094 815.148438 Z M 2170.371094 728.644531 " clip-rule="nonzero"/></clipPath><clipPath id="e0632b271d"><path d="M 2262.957031 728.644531 C 2262.957031 751.425781 2253.105469 773.703125 2235.90625 789.8125 C 2218.707031 805.921875 2194.925781 815.148438 2170.601562 815.148438 L 2170.601562 771.015625 C 2182.515625 771.015625 2194.167969 766.496094 2202.589844 758.605469 C 2211.015625 750.714844 2215.839844 739.800781 2215.839844 728.644531 Z M 2262.957031 728.644531 " clip-rule="nonzero"/></clipPath><clipPath id="2964f1b756"><path d="M 0.546875 0.644531 L 92.957031 0.644531 L 92.957031 87.148438 L 0.546875 87.148438 Z M 0.546875 0.644531 " clip-rule="nonzero"/></clipPath><clipPath id="451130ac2f"><path d="M 92.957031 0.644531 C 92.957031 23.425781 83.105469 45.703125 65.90625 61.8125 C 48.707031 77.921875 24.925781 87.148438 0.601562 87.148438 L 0.601562 43.015625 C 12.515625 43.015625 24.167969 38.496094 32.589844 30.605469 C 41.015625 22.714844 45.839844 11.800781 45.839844 0.644531 Z M 92.957031 0.644531 " clip-rule="nonzero"/></clipPath><clipPath id="f56fa7b645"><rect x="0" width="93" y="0" height="88"/></clipPath><clipPath id="f14ebdaa67"><path d="M 2190 3.203125 L 2319.488281 3.203125 L 2319.488281 127.714844 L 2190 127.714844 Z M 2190 3.203125 " clip-rule="nonzero"/></clipPath><clipPath id="093ac1e258"><path d="M 2190.089844 3.203125 C 2224.039062 3.203125 2257.238281 16.484375 2281.246094 39.671875 C 2305.25 62.859375 2319.003906 94.925781 2319.003906 127.714844 L 2253.234375 127.714844 C 2253.234375 111.652344 2246.5 95.949219 2234.742188 84.589844 C 2222.980469 73.230469 2206.722656 66.726562 2190.089844 66.726562 Z M 2190.089844 3.203125 " clip-rule="nonzero"/></clipPath><clipPath id="6c1ee64405"><path d="M 0 0.203125 L 129.019531 0.203125 L 129.019531 124.714844 L 0 124.714844 Z M 0 0.203125 " clip-rule="nonzero"/></clipPath><clipPath id="ec51625feb"><path d="M 0.0898438 0.203125 C 34.039062 0.203125 67.238281 13.484375 91.246094 36.671875 C 115.25 59.859375 129.003906 91.925781 129.003906 124.714844 L 63.234375 124.714844 C 63.234375 108.652344 56.5 92.949219 44.742188 81.589844 C 32.980469 70.230469 16.722656 63.726562 0.0898438 63.726562 Z M 0.0898438 0.203125 " clip-rule="nonzero"/></clipPath><clipPath id="706cb491b2"><rect x="0" width="130" y="0" height="125"/></clipPath><clipPath id="50ce870eb0"><path d="M 2154.207031 78.582031 L 2240.710938 78.582031 L 2240.710938 171 L 2154.207031 171 Z M 2154.207031 78.582031 " clip-rule="nonzero"/></clipPath><clipPath id="770b608402"><path d="M 2154.207031 78.582031 C 2176.988281 78.582031 2199.265625 88.433594 2215.375 105.632812 C 2231.484375 122.828125 2240.710938 146.613281 2240.710938 170.9375 L 2196.578125 170.9375 C 2196.578125 159.023438 2192.058594 147.371094 2184.167969 138.949219 C 2176.277344 130.523438 2165.363281 125.699219 2154.207031 125.699219 Z M 2154.207031 78.582031 " clip-rule="nonzero"/></clipPath><clipPath id="20732807ee"><path d="M 0.207031 0.582031 L 86.710938 0.582031 L 86.710938 93 L 0.207031 93 Z M 0.207031 0.582031 " clip-rule="nonzero"/></clipPath><clipPath id="fba7998e76"><path d="M 0.207031 0.582031 C 22.988281 0.582031 45.265625 10.433594 61.375 27.632812 C 77.484375 44.828125 86.710938 68.613281 86.710938 92.9375 L 42.578125 92.9375 C 42.578125 81.023438 38.058594 69.371094 30.167969 60.949219 C 22.277344 52.523438 11.363281 47.699219 0.207031 47.699219 Z M 0.207031 0.582031 " clip-rule="nonzero"/></clipPath><clipPath id="74dc8e2ca4"><rect x="0" width="87" y="0" height="93"/></clipPath><clipPath id="6f4124cf47"><path d="M 2180.726562 59.242188 L 2267.234375 59.242188 L 2267.234375 151.828125 L 2180.726562 151.828125 Z M 2180.726562 59.242188 " clip-rule="nonzero"/></clipPath><clipPath id="3079c2a2c4"><path d="M 2180.726562 59.242188 C 2203.511719 59.242188 2225.785156 69.09375 2241.894531 86.292969 C 2258.003906 103.492188 2267.234375 127.277344 2267.234375 151.597656 L 2223.101562 151.597656 C 2223.101562 139.683594 2218.582031 128.035156 2210.691406 119.609375 C 2202.800781 111.1875 2191.886719 106.359375 2180.726562 106.359375 Z M 2180.726562 59.242188 " clip-rule="nonzero"/></clipPath><clipPath id="f3dfcad286"><path d="M 0.726562 0.242188 L 87.234375 0.242188 L 87.234375 92.828125 L 0.726562 92.828125 Z M 0.726562 0.242188 " clip-rule="nonzero"/></clipPath><clipPath id="94d2364b63"><path d="M 0.726562 0.242188 C 23.511719 0.242188 45.785156 10.09375 61.894531 27.292969 C 78.003906 44.492188 87.234375 68.277344 87.234375 92.597656 L 43.101562 92.597656 C 43.101562 80.683594 38.582031 69.035156 30.691406 60.609375 C 22.800781 52.1875 11.886719 47.359375 0.726562 47.359375 Z M 0.726562 0.242188 " clip-rule="nonzero"/></clipPath><clipPath id="24c0abcb54"><rect x="0" width="88" y="0" height="93"/></clipPath><clipPath id="7dc5dfd36c"><path d="M 0.570312 0 L 743 0 L 743 1090 L 0.570312 1090 Z M 0.570312 0 " clip-rule="nonzero"/></clipPath><clipPath id="2c7c0819e7"><path d="M 0.570312 0 L 786 0 L 786 1090 L 0.570312 1090 Z M 0.570312 0 " clip-rule="nonzero"/></clipPath><clipPath id="056eb4ea8d"><path d="M 0.570312 121 L 1212 121 L 1212 1039 L 0.570312 1039 Z M 0.570312 121 " clip-rule="nonzero"/></clipPath><clipPath id="da7c145aa9"><path d="M 0.570312 101 L 1212 101 L 1212 1018 L 0.570312 1018 Z M 0.570312 101 " clip-rule="nonzero"/></clipPath><clipPath id="5df5116b3b"><path d="M 254.269531 796.59375 L 262.109375 796.59375 L 262.109375 804.65625 L 254.269531 804.65625 Z M 254.269531 796.59375 " clip-rule="nonzero"/></clipPath><clipPath id="97c974ff74"><path d="M 262.089844 799.296875 C 261.035156 803.683594 260.464844 804.007812 259.898438 804.25 C 259.328125 804.496094 258.679688 804.738281 258.027344 804.574219 C 257.054688 804.414062 255.347656 803.601562 254.78125 802.625 C 254.210938 801.652344 254.210938 799.785156 254.535156 798.890625 C 254.78125 798.238281 255.105469 797.671875 255.753906 797.347656 C 256.566406 796.859375 258.515625 796.453125 259.492188 796.695312 C 260.140625 796.777344 261.117188 797.671875 261.117188 797.671875 " clip-rule="nonzero"/></clipPath><clipPath id="019a81f0c9"><path d="M 0.269531 0.59375 L 8.109375 0.59375 L 8.109375 8.65625 L 0.269531 8.65625 Z M 0.269531 0.59375 " clip-rule="nonzero"/></clipPath><clipPath id="3f02839cc1"><path d="M 8.089844 3.296875 C 7.035156 7.683594 6.464844 8.007812 5.898438 8.25 C 5.328125 8.496094 4.679688 8.738281 4.027344 8.574219 C 3.054688 8.414062 1.347656 7.601562 0.78125 6.625 C 0.210938 5.652344 0.210938 3.785156 0.535156 2.890625 C 0.78125 2.238281 1.105469 1.671875 1.753906 1.347656 C 2.566406 0.859375 4.515625 0.453125 5.492188 0.695312 C 6.140625 0.777344 7.117188 1.671875 7.117188 1.671875 " clip-rule="nonzero"/></clipPath><clipPath id="b41593b443"><rect x="0" width="9" y="0" height="9"/></clipPath><clipPath id="616050df3e"><path d="M 1303.65625 760.632812 L 1431.667969 760.632812 L 1431.667969 867.726562 L 1303.65625 867.726562 Z M 1303.65625 760.632812 " clip-rule="nonzero"/></clipPath><clipPath id="8273c38f60"><path d="M 1367.5 760.632812 L 1431.339844 867.726562 L 1303.65625 867.726562 Z M 1367.5 760.632812 " clip-rule="nonzero"/></clipPath><clipPath id="a937c81630"><path d="M 0.65625 0.632812 L 128.550781 0.632812 L 128.550781 107.726562 L 0.65625 107.726562 Z M 0.65625 0.632812 " clip-rule="nonzero"/></clipPath><clipPath id="b695d38416"><path d="M 64.5 0.632812 L 128.339844 107.726562 L 0.65625 107.726562 Z M 64.5 0.632812 " clip-rule="nonzero"/></clipPath><clipPath id="7ba021a047"><rect x="0" width="129" y="0" height="108"/></clipPath><clipPath id="52111fe0d8"><path d="M 812.496094 760.632812 L 938.414062 760.632812 L 938.414062 867.730469 L 812.496094 867.730469 Z M 812.496094 760.632812 " clip-rule="nonzero"/></clipPath><clipPath id="d3f77e7b0f"><path d="M 875.28125 760.632812 L 938.070312 867.730469 L 812.496094 867.730469 Z M 875.28125 760.632812 " clip-rule="nonzero"/></clipPath><clipPath id="2d3f96707e"><path d="M 0.496094 0.632812 L 126 0.632812 L 126 107.730469 L 0.496094 107.730469 Z M 0.496094 0.632812 " clip-rule="nonzero"/></clipPath><clipPath id="621e48e89c"><path d="M 63.28125 0.632812 L 126.070312 107.730469 L 0.496094 107.730469 Z M 63.28125 0.632812 " clip-rule="nonzero"/></clipPath><clipPath id="04dc1cbb37"><rect x="0" width="127" y="0" height="108"/></clipPath><clipPath id="98fe06ebe0"><path d="M 144.011719 724.683594 L 267.148438 724.683594 L 267.148438 868 L 144.011719 868 Z M 144.011719 724.683594 " clip-rule="nonzero"/></clipPath><clipPath id="1e06bbd174"><path d="M 205.578125 724.683594 L 267.148438 867.898438 L 144.011719 867.898438 Z M 205.578125 724.683594 " clip-rule="nonzero"/></clipPath><clipPath id="e4d1bbd762"><path d="M 0.0117188 0.683594 L 123.148438 0.683594 L 123.148438 144 L 0.0117188 144 Z M 0.0117188 0.683594 " clip-rule="nonzero"/></clipPath><clipPath id="e2f5ef6245"><path d="M 61.578125 0.683594 L 123.148438 143.898438 L 0.0117188 143.898438 Z M 61.578125 0.683594 " clip-rule="nonzero"/></clipPath><clipPath id="a0f726346f"><rect x="0" width="124" y="0" height="144"/></clipPath><clipPath id="fae49b7e2a"><path d="M 495.191406 1.574219 L 613.035156 1.574219 L 613.035156 145.199219 L 495.191406 145.199219 Z M 495.191406 1.574219 " clip-rule="nonzero"/></clipPath><clipPath id="8ad600e776"><path d="M 554.113281 145.199219 L 495.191406 1.984375 L 613.035156 1.984375 Z M 554.113281 145.199219 " clip-rule="nonzero"/></clipPath><clipPath id="4514de9456"><path d="M 0.191406 1 L 118.035156 1 L 118.035156 144.199219 L 0.191406 144.199219 Z M 0.191406 1 " clip-rule="nonzero"/></clipPath><clipPath id="e6284df99e"><path d="M 59.113281 144.199219 L 0.191406 0.984375 L 118.035156 0.984375 Z M 59.113281 144.199219 " clip-rule="nonzero"/></clipPath><clipPath id="54892e0f7f"><rect x="0" width="119" y="0" height="145"/></clipPath><clipPath id="69315484bd"><path d="M 811 2.417969 L 935.21875 2.417969 L 935.21875 112.527344 L 811 112.527344 Z M 811 2.417969 " clip-rule="nonzero"/></clipPath><clipPath id="0c2293ba9a"><path d="M 873.144531 112.527344 L 811.066406 2.417969 L 935.21875 2.417969 Z M 873.144531 112.527344 " clip-rule="nonzero"/></clipPath><clipPath id="7760c06875"><path d="M 0.0429688 0.417969 L 124.21875 0.417969 L 124.21875 110.527344 L 0.0429688 110.527344 Z M 0.0429688 0.417969 " clip-rule="nonzero"/></clipPath><clipPath id="994dba25be"><path d="M 62.144531 110.527344 L 0.0664062 0.417969 L 124.21875 0.417969 Z M 62.144531 110.527344 " clip-rule="nonzero"/></clipPath><clipPath id="2c1ff1e50a"><rect x="0" width="125" y="0" height="111"/></clipPath><clipPath id="8d2cf5f14e"><path d="M 1305.289062 1.742188 L 1429.59375 1.742188 L 1429.59375 111.851562 L 1305.289062 111.851562 Z M 1305.289062 1.742188 " clip-rule="nonzero"/></clipPath><clipPath id="650d1ee0aa"><path d="M 1367.515625 111.851562 L 1305.441406 1.742188 L 1429.59375 1.742188 Z M 1367.515625 111.851562 " clip-rule="nonzero"/></clipPath><clipPath id="b940593163"><path d="M 0.386719 0.742188 L 124.59375 0.742188 L 124.59375 110.851562 L 0.386719 110.851562 Z M 0.386719 0.742188 " clip-rule="nonzero"/></clipPath><clipPath id="6e7294f81e"><path d="M 62.515625 110.851562 L 0.441406 0.742188 L 124.59375 0.742188 Z M 62.515625 110.851562 " clip-rule="nonzero"/></clipPath><clipPath id="3a2077dd9b"><rect x="0" width="125" y="0" height="111"/></clipPath><clipPath id="c50fec0793"><path d="M 765 665 L 827 665 L 827 745 L 765 745 Z M 765 665 " clip-rule="nonzero"/></clipPath><clipPath id="760c38d448"><path d="M 810.394531 647.511719 L 843.007812 726.273438 L 798.398438 744.742188 L 765.785156 665.980469 Z M 810.394531 647.511719 " clip-rule="nonzero"/></clipPath><clipPath id="dd0377ac21"><path d="M 826.671875 686.820312 L 798.339844 744.597656 L 765.785156 665.980469 Z M 826.671875 686.820312 " clip-rule="nonzero"/></clipPath><clipPath id="d2cfdacea5"><path d="M 0.710938 0.839844 L 61.875 0.839844 L 61.875 79.753906 L 0.710938 79.753906 Z M 0.710938 0.839844 " clip-rule="nonzero"/></clipPath><clipPath id="e7feae7824"><path d="M 45.394531 -17.488281 L 78.007812 61.273438 L 33.398438 79.742188 L 0.785156 0.980469 Z M 45.394531 -17.488281 " clip-rule="nonzero"/></clipPath><clipPath id="91916fb49d"><path d="M 61.671875 21.820312 L 33.339844 79.597656 L 0.785156 0.980469 Z M 61.671875 21.820312 " clip-rule="nonzero"/></clipPath><clipPath id="7a54e3f38a"><rect x="0" width="62" y="0" height="80"/></clipPath></defs><path stroke-linecap="butt" transform="matrix(0.369008, -0.652425, 0.652425, 0.369008, 812.437663, 867.547344)" fill="none" stroke-linejoin="miter" d="M 0.00275084 0.501125 L 1327.49292 0.496866 " stroke="#000000" stroke-width="1" stroke-opacity="1" stroke-miterlimit="4"/><path stroke-linecap="butt" transform="matrix(0.74955, -0.000000000000001301, 0.000000000000001301, 0.74955, 1302.1649, 1.614078)" fill="none" stroke-linejoin="miter" d="M -0.00111683 0.499237 L 169.433802 0.499237 " stroke="#000000" stroke-width="1" stroke-opacity="1" stroke-miterlimit="4"/><path stroke-linecap="butt" transform="matrix(0.370008, -0.651859, 0.651859, 0.370008, 937.608803, 867.849323)" fill="none" stroke-linejoin="miter" d="M -0.00171179 0.499225 L 1328.579284 0.499836 " stroke="#000000" stroke-width="1" stroke-opacity="1" stroke-miterlimit="4"/><path stroke-linecap="butt" transform="matrix(-0.373139, -0.650071, 0.650071, -0.373139, 1431.008045, 867.800249)" fill="none" stroke-linejoin="miter" d="M 0.00115666 0.49905 L 1331.41811 0.498153 " stroke="#000000" stroke-width="1" stroke-opacity="1" stroke-miterlimit="4"/><path stroke-linecap="butt" transform="matrix(-0.370549, -0.651551, 0.651551, -0.370549, 1303.320982, 868.491178)" fill="none" stroke-linejoin="miter" d="M 0.000302131 0.50275 L 1329.328405 0.501987 " stroke="#000000" stroke-width="1" stroke-opacity="1" stroke-miterlimit="4"/><path stroke-linecap="butt" transform="matrix(-0.74955, -0.00000000130821, 0.00000000130821, -0.74955, 1431.742028, 868.31733)" fill="none" stroke-linejoin="miter" d="M -0.000212533 0.501533 L 172.26974 0.501532 " stroke="#000000" stroke-width="1" stroke-opacity="1" stroke-miterlimit="4"/><g clip-path="url(#479997a6ef)"><g clip-path="url(#02cd269781)"><g transform="matrix(1, 0, 0, 1, 1526, 3)"><g clip-path="url(#cfa6851d3a)"><g clip-path="url(#21b2689562)"><g clip-path="url(#4aca2cbffb)"><path fill="#000000" d="M 0.78125 0.238281 L 123.722656 0.238281 L 123.722656 865.144531 L 0.78125 865.144531 Z M 0.78125 0.238281 " fill-opacity="1" fill-rule="nonzero"/></g></g></g></g></g></g><g clip-path="url(#081999c912)"><g clip-path="url(#d067b2fc9c)"><g transform="matrix(1, 0, 0, 1, 1768, 125)"><g clip-path="url(#f64ce184e3)"><g clip-path="url(#3e39140387)"><g clip-path="url(#e164f1573f)"><path fill="#000000" d="M 0.929688 0.367188 L 123.871094 0.367188 L 123.871094 617.949219 L 0.929688 617.949219 Z M 0.929688 0.367188 " fill-opacity="1" fill-rule="nonzero"/></g></g></g></g></g></g><g clip-path="url(#0b3dc321f8)"><g transform="matrix(1, 0, 0, 1, 2196, 125)"><g clip-path="url(#d1c35a4200)"><g clip-path="url(#360a115adb)"><path fill="#000000" d="M 0.0664062 0.367188 L 123.003906 0.367188 L 123.003906 617.949219 L 0.0664062 617.949219 Z M 0.0664062 0.367188 " fill-opacity="1" fill-rule="nonzero"/></g></g></g></g><g clip-path="url(#fff92a7148)"><g clip-path="url(#9e2f8af641)"><g transform="matrix(1, 0, 0, 1, 2429, 3)"><g clip-path="url(#47485f526e)"><g clip-path="url(#38cf1f24c8)"><g clip-path="url(#4195dc486d)"><path fill="#000000" d="M 0.0625 0.238281 L 122.976562 0.238281 L 122.976562 864.9375 L 0.0625 864.9375 Z M 0.0625 0.238281 " fill-opacity="1" fill-rule="nonzero"/></g></g></g></g></g></g><g clip-path="url(#9bd9d97d9c)"><g clip-path="url(#d5fd8c2afb)"><g transform="matrix(1, 0, 0, 1, 2881, 3)"><g clip-path="url(#a1e23e8f82)"><g clip-path="url(#2509c84410)"><g clip-path="url(#4349f43b80)"><path fill="#000000" d="M 0.949219 0.238281 L 123.890625 0.238281 L 123.890625 866.105469 L 0.949219 866.105469 Z M 0.949219 0.238281 " fill-opacity="1" fill-rule="nonzero"/></g></g></g></g></g></g><g clip-path="url(#a232adbc74)"><g transform="matrix(1, 0, 0, 1, 1891, 743)"><g clip-path="url(#430a21145d)"><g clip-path="url(#9fe5efcb4c)"><path fill="#000000" d="M 0.871094 123.914062 L 0.871094 0.972656 L 304.863281 0.972656 L 304.863281 123.914062 Z M 0.871094 123.914062 " fill-opacity="1" fill-rule="nonzero"/></g></g></g></g><g clip-path="url(#9df5ae0228)"><g clip-path="url(#62ec53494c)"><g transform="matrix(1, 0, 0, 1, 2446, 0.000000000000010156)"><g clip-path="url(#a93cc64740)"><g clip-path="url(#9ec458248e)"><g clip-path="url(#2187462118)"><path fill="#000000" d="M 0.25 58.035156 L 108.628906 0 L 543.890625 812.855469 L 435.507812 870.890625 Z M 0.25 58.035156 " fill-opacity="1" fill-rule="nonzero"/></g></g></g></g></g></g><g clip-path="url(#f4b64fae7d)"><g transform="matrix(1, 0, 0, 1, 1891, 2)"><g clip-path="url(#a3b9dcb0c0)"><g clip-path="url(#e5924ccd52)"><path fill="#000000" d="M 0.871094 123.363281 L 0.871094 0.421875 L 304.863281 0.421875 L 304.863281 123.363281 Z M 0.871094 123.363281 " fill-opacity="1" fill-rule="nonzero"/></g></g></g></g><path stroke-linecap="butt" transform="matrix(0.281437, -0.694708, 0.694708, 0.281437, 143.299766, 868.281832)" fill="none" stroke-linejoin="miter" d="M 0.00149475 0.50129 L 1247.608132 0.498584 " stroke="#000000" stroke-width="1" stroke-opacity="1" stroke-miterlimit="4"/><path stroke-linecap="butt" transform="matrix(0.281276, -0.694773, 0.694773, 0.281276, 266.702087, 867.800249)" fill="none" stroke-linejoin="miter" d="M 0.0000116025 0.501877 L 1029.989915 0.501525 " stroke="#000000" stroke-width="1" stroke-opacity="1" stroke-miterlimit="4"/><path stroke-linecap="butt" transform="matrix(-0.282507, -0.694273, 0.694273, -0.282507, 797.842443, 745.797584)" fill="none" stroke-linejoin="miter" d="M -0.000819103 0.502298 L 854.596565 0.502234 " stroke="#000000" stroke-width="1" stroke-opacity="1" stroke-miterlimit="4"/><path stroke-linecap="butt" transform="matrix(-0.282794, -0.694156, 0.694156, -0.282794, 865.391751, 621.919053)" fill="none" stroke-linejoin="miter" d="M 0.000661118 0.49948 L 893.520796 0.497431 " stroke="#000000" stroke-width="1" stroke-opacity="1" stroke-miterlimit="4"/><path stroke-linecap="butt" transform="matrix(0.35902, -0.657974, 0.657974, 0.35902, 797.418353, 745.693414)" fill="none" stroke-linejoin="miter" d="M 0.00134723 0.49737 L 189.848691 0.499135 " stroke="#000000" stroke-width="1" stroke-opacity="1" stroke-miterlimit="4"/><path stroke-linecap="butt" transform="matrix(-0.74955, -0.000452681, 0.000452681, -0.74955, 747.213424, 621.33306)" fill="none" stroke-linejoin="miter" d="M -0.0015911 0.501674 L 507.526738 0.497424 " stroke="#000000" stroke-width="1" stroke-opacity="1" stroke-miterlimit="4"/><path stroke-linecap="butt" transform="matrix(-0.74955, 0, 0, -0.74955, 706.381616, 519.478069)" fill="none" stroke-linejoin="miter" d="M -0.00159668 0.502309 L 397.590949 0.502309 " stroke="#000000" stroke-width="1" stroke-opacity="1" stroke-miterlimit="4"/><path stroke-linecap="butt" transform="matrix(0.74955, -0.000000000000002045, 0.000000000000002045, 0.74955, 143.322371, 867.65041)" fill="none" stroke-linejoin="miter" d="M 0.00246579 0.497668 L 165.789364 0.497668 " stroke="#000000" stroke-width="1" stroke-opacity="1" stroke-miterlimit="4"/><path stroke-linecap="butt" transform="matrix(0.749549, -0.00128725, 0.00128725, 0.749549, 494.770557, 1.908096)" fill="none" stroke-linejoin="miter" d="M -0.00222296 0.497834 L 157.78533 0.497817 " stroke="#000000" stroke-width="1" stroke-opacity="1" stroke-miterlimit="4"/><path stroke-linecap="butt" transform="matrix(0.74955, -0.000984207, 0.000984207, 0.74955, 810.749987, 2.049166)" fill="none" stroke-linejoin="miter" d="M -0.000642979 0.502454 L 165.062003 0.500311 " stroke="#000000" stroke-width="1" stroke-opacity="1" stroke-miterlimit="4"/><path stroke-linecap="butt" transform="matrix(0.749548, -0.001937, 0.001937, 0.749548, 812.819562, 867.804302)" fill="none" stroke-linejoin="miter" d="M -0.000292755 0.500815 L 167.741464 0.501745 " stroke="#000000" stroke-width="1" stroke-opacity="1" stroke-miterlimit="4"/><g clip-path="url(#3c6464ec70)"><g clip-path="url(#1e7f76f68c)"><g transform="matrix(1, 0, 0, 1, 1769, 2)"><g clip-path="url(#707d753a16)"><g clip-path="url(#a044997ed7)"><g clip-path="url(#36bb47119d)"><path fill="#000000" d="M 0.488281 0.6875 L 125 0.6875 L 125 129.578125 L 0.488281 129.578125 Z M 0.488281 0.6875 " fill-opacity="1" fill-rule="nonzero"/></g></g></g></g></g></g><g clip-path="url(#7e479ec8ed)"><g clip-path="url(#3e0b23388e)"><g transform="matrix(1, 0, 0, 1, 1844, 80)"><g clip-path="url(#a811e51c29)"><g clip-path="url(#4b90bf1714)"><g clip-path="url(#207dce9db0)"><path fill="#000000" d="M 0.863281 0.980469 L 93.113281 0.980469 L 93.113281 87.484375 L 0.863281 87.484375 Z M 0.863281 0.980469 " fill-opacity="1" fill-rule="nonzero"/></g></g></g></g></g></g><g clip-path="url(#ccb140dbe4)"><g clip-path="url(#32803f64e2)"><g transform="matrix(1, 0, 0, 1, 1825, 54)"><g clip-path="url(#44a183cdb8)"><g clip-path="url(#73d93c7c68)"><g clip-path="url(#c9cd96c2ab)"><path fill="#000000" d="M 0.527344 0.457031 L 92.773438 0.457031 L 92.773438 86.960938 L 0.527344 86.960938 Z M 0.527344 0.457031 " fill-opacity="1" fill-rule="nonzero"/></g></g></g></g></g></g><g clip-path="url(#6adbf1ebbb)"><g clip-path="url(#887d1cebd1)"><g transform="matrix(1, 0, 0, 1, 1769, 742)"><g clip-path="url(#fdf4dc2afe)"><g clip-path="url(#e0ecabc2c8)"><g clip-path="url(#ce34ab5eed)"><path fill="#000000" d="M 0.484375 124.914062 L 0.484375 0.402344 L 129.375 0.402344 L 129.375 124.914062 Z M 0.484375 124.914062 " fill-opacity="1" fill-rule="nonzero"/></g></g></g></g></g></g><g clip-path="url(#461ef88f39)"><g clip-path="url(#94d559ac96)"><g transform="matrix(1, 0, 0, 1, 1847, 699)"><g clip-path="url(#ee89c040d2)"><g clip-path="url(#59541e0791)"><g clip-path="url(#53740d9102)"><path fill="#000000" d="M 0.773438 92.535156 L 0.773438 0.285156 L 87.277344 0.285156 L 87.277344 92.535156 Z M 0.773438 92.535156 " fill-opacity="1" fill-rule="nonzero"/></g></g></g></g></g></g><g clip-path="url(#92803abdc0)"><g clip-path="url(#94e881f566)"><g transform="matrix(1, 0, 0, 1, 1821, 718)"><g clip-path="url(#7c8b24c041)"><g clip-path="url(#7a8e39e092)"><g clip-path="url(#6a4fc544aa)"><path fill="#000000" d="M 0.25 92.871094 L 0.25 0.625 L 86.757812 0.625 L 86.757812 92.871094 Z M 0.25 92.871094 " fill-opacity="1" fill-rule="nonzero"/></g></g></g></g></g></g><g clip-path="url(#4aee543311)"><g clip-path="url(#7df2baa6ac)"><g transform="matrix(1, 0, 0, 1, 2194, 738)"><g clip-path="url(#c528207ee1)"><g clip-path="url(#94b03aa69f)"><g clip-path="url(#4062889cdd)"><path fill="#000000" d="M 125 128.914062 L 0.488281 128.914062 L 0.488281 0.0273438 L 125 0.0273438 Z M 125 128.914062 " fill-opacity="1" fill-rule="nonzero"/></g></g></g></g></g></g><g clip-path="url(#4870e6c1f7)"><g clip-path="url(#1e0ccd3aed)"><g transform="matrix(1, 0, 0, 1, 2151, 702)"><g clip-path="url(#f8618cf047)"><g clip-path="url(#7502ef01a6)"><g clip-path="url(#488191fea3)"><path fill="#000000" d="M 92.621094 86.625 L 0.371094 86.625 L 0.371094 0.121094 L 92.621094 0.121094 Z M 92.621094 86.625 " fill-opacity="1" fill-rule="nonzero"/></g></g></g></g></g></g><g clip-path="url(#29875911c4)"><g clip-path="url(#e0632b271d)"><g transform="matrix(1, 0, 0, 1, 2170, 728)"><g clip-path="url(#f56fa7b645)"><g clip-path="url(#2964f1b756)"><g clip-path="url(#451130ac2f)"><path fill="#000000" d="M 92.957031 87.148438 L 0.710938 87.148438 L 0.710938 0.644531 L 92.957031 0.644531 Z M 92.957031 87.148438 " fill-opacity="1" fill-rule="nonzero"/></g></g></g></g></g></g><g clip-path="url(#f14ebdaa67)"><g clip-path="url(#093ac1e258)"><g transform="matrix(1, 0, 0, 1, 2190, 3)"><g clip-path="url(#706cb491b2)"><g clip-path="url(#6c1ee64405)"><g clip-path="url(#ec51625feb)"><path fill="#000000" d="M 129.003906 0.203125 L 129.003906 124.714844 L 0.113281 124.714844 L 0.113281 0.203125 Z M 129.003906 0.203125 " fill-opacity="1" fill-rule="nonzero"/></g></g></g></g></g></g><g clip-path="url(#50ce870eb0)"><g clip-path="url(#770b608402)"><g transform="matrix(1, 0, 0, 1, 2154, 78)"><g clip-path="url(#74dc8e2ca4)"><g clip-path="url(#20732807ee)"><g clip-path="url(#fba7998e76)"><path fill="#000000" d="M 86.710938 0.582031 L 86.710938 92.828125 L 0.207031 92.828125 L 0.207031 0.582031 Z M 86.710938 0.582031 " fill-opacity="1" fill-rule="nonzero"/></g></g></g></g></g></g><g clip-path="url(#6f4124cf47)"><g clip-path="url(#3079c2a2c4)"><g transform="matrix(1, 0, 0, 1, 2180, 59)"><g clip-path="url(#24c0abcb54)"><g clip-path="url(#f3dfcad286)"><g clip-path="url(#94d2364b63)"><path fill="#000000" d="M 87.234375 0.242188 L 87.234375 92.492188 L 0.726562 92.492188 L 0.726562 0.242188 Z M 87.234375 0.242188 " fill-opacity="1" fill-rule="nonzero"/></g></g></g></g></g></g><g clip-path="url(#7dc5dfd36c)"><path stroke-linecap="butt" transform="matrix(0.281054, -0.694863, 0.694863, 0.281054, 150.535079, 852.699915)" fill="none" stroke-linejoin="miter" d="M -0.000595069 27.000963 L 1224.320064 27.002576 " stroke="#000000" stroke-width="54" stroke-opacity="1" stroke-miterlimit="4"/></g><g clip-path="url(#2c7c0819e7)"><path stroke-linecap="butt" transform="matrix(0.281054, -0.694863, 0.694863, 0.281054, 193.209366, 853.183321)" fill="none" stroke-linejoin="miter" d="M -0.00300013 26.998465 L 1224.322491 26.998123 " stroke="#000000" stroke-width="54" stroke-opacity="1" stroke-miterlimit="4"/></g><path stroke-linecap="butt" transform="matrix(0.286482, -0.692643, 0.692643, 0.286482, 229.333974, 852.05607)" fill="none" stroke-linejoin="miter" d="M -0.00240586 27.000755 L 1227.777977 26.99683 " stroke="#000000" stroke-width="54" stroke-opacity="1" stroke-miterlimit="4"/><path stroke-linecap="butt" transform="matrix(-0.282794, -0.694156, 0.694156, -0.282794, 828.190381, 637.443235)" fill="none" stroke-linejoin="miter" d="M -0.00148308 27.00082 L 893.523478 27.000738 " stroke="#000000" stroke-width="54" stroke-opacity="1" stroke-miterlimit="4"/><path stroke-linecap="butt" transform="matrix(-0.283695, -0.693789, 0.693789, -0.283695, 804.086257, 680.087253)" fill="none" stroke-linejoin="miter" d="M 0.00122746 27.003034 L 954.244548 27.001603 " stroke="#000000" stroke-width="54" stroke-opacity="1" stroke-miterlimit="4"/><path stroke-linecap="butt" transform="matrix(-0.282639, -0.69422, 0.69422, -0.282639, 785.548234, 714.186012)" fill="none" stroke-linejoin="miter" d="M -0.000328266 27.001029 L 1003.246198 26.998621 " stroke="#000000" stroke-width="54" stroke-opacity="1" stroke-miterlimit="4"/><g clip-path="url(#056eb4ea8d)"><path stroke-linecap="butt" transform="matrix(-0.74955, -0.000452681, 0.000452681, -0.74955, 753.34393, 620.590346)" fill="none" stroke-linejoin="miter" d="M 0.00158538 54.001804 L 507.524703 53.997557 " stroke="#000000" stroke-width="108" stroke-opacity="1" stroke-miterlimit="4"/></g><g clip-path="url(#da7c145aa9)"><path stroke-linecap="butt" transform="matrix(-0.74955, -0.000452681, 0.000452681, -0.74955, 753.368396, 600.422645)" fill="none" stroke-linejoin="miter" d="M -0.0022546 54.002164 L 507.526074 53.997913 " stroke="#000000" stroke-width="108" stroke-opacity="1" stroke-miterlimit="4"/></g><path stroke-linecap="butt" transform="matrix(0.369163, -0.652337, 0.652337, 0.369163, 825.339115, 845.349885)" fill="none" stroke-linejoin="miter" d="M 0.00161783 27.000461 L 1294.689181 26.99772 " stroke="#000000" stroke-width="54" stroke-opacity="1" stroke-miterlimit="4"/><path stroke-linecap="butt" transform="matrix(0.364658, -0.654866, 0.654866, 0.364658, 870.407118, 839.117536)" fill="none" stroke-linejoin="miter" d="M -0.000923823 27.002549 L 1275.107957 26.998814 " stroke="#000000" stroke-width="54" stroke-opacity="1" stroke-miterlimit="4"/><path stroke-linecap="butt" transform="matrix(0.369627, -0.652075, 0.652075, 0.369627, 903.072402, 847.77567)" fill="none" stroke-linejoin="miter" d="M 0.00278431 27.000355 L 1297.022872 27.001598 " stroke="#000000" stroke-width="54" stroke-opacity="1" stroke-miterlimit="4"/><path stroke-linecap="butt" transform="matrix(-0.370358, -0.65166, 0.65166, -0.370358, 1303.462809, 868.019621)" fill="none" stroke-linejoin="miter" d="M -0.000151054 27.001402 L 1293.950511 26.999187 " stroke="#000000" stroke-width="54" stroke-opacity="1" stroke-miterlimit="4"/><path stroke-linecap="butt" transform="matrix(-0.370283, -0.651702, 0.651702, -0.370283, 1348.281002, 866.878601)" fill="none" stroke-linejoin="miter" d="M -0.00343234 27.001025 L 1287.808004 27.000201 " stroke="#000000" stroke-width="54" stroke-opacity="1" stroke-miterlimit="4"/><path stroke-linecap="butt" transform="matrix(-0.372855, -0.650235, 0.650235, -0.372855, 1383.290375, 865.784834)" fill="none" stroke-linejoin="miter" d="M -0.00177708 27.000436 L 1295.996513 27.000871 " stroke="#000000" stroke-width="54" stroke-opacity="1" stroke-miterlimit="4"/><g clip-path="url(#5df5116b3b)"><g clip-path="url(#97c974ff74)"><g transform="matrix(1, 0, 0, 1, 254, 796)"><g clip-path="url(#b41593b443)"><g clip-path="url(#019a81f0c9)"><g clip-path="url(#3f02839cc1)"><rect x="-946.835" width="4534.92" fill="#000000" height="1800.36001" y="-1071.055001" fill-opacity="1"/></g></g></g></g></g></g><g clip-path="url(#616050df3e)"><g clip-path="url(#8273c38f60)"><g transform="matrix(1, 0, 0, 1, 1303, 760)"><g clip-path="url(#7ba021a047)"><g clip-path="url(#a937c81630)"><g clip-path="url(#b695d38416)"><path fill="#000000" d="M 0.65625 0.632812 L 128.25 0.632812 L 128.25 107.726562 L 0.65625 107.726562 Z M 0.65625 0.632812 " fill-opacity="1" fill-rule="nonzero"/></g></g></g></g></g></g><g clip-path="url(#52111fe0d8)"><g clip-path="url(#d3f77e7b0f)"><g transform="matrix(1, 0, 0, 1, 812, 760)"><g clip-path="url(#04dc1cbb37)"><g clip-path="url(#2d3f96707e)"><g clip-path="url(#621e48e89c)"><path fill="#000000" d="M 0.496094 0.632812 L 125.996094 0.632812 L 125.996094 107.730469 L 0.496094 107.730469 Z M 0.496094 0.632812 " fill-opacity="1" fill-rule="nonzero"/></g></g></g></g></g></g><g clip-path="url(#98fe06ebe0)"><g clip-path="url(#1e06bbd174)"><g transform="matrix(1, 0, 0, 1, 144, 724)"><g clip-path="url(#a0f726346f)"><g clip-path="url(#e4d1bbd762)"><g clip-path="url(#e2f5ef6245)"><path fill="#000000" d="M 0.0117188 0.683594 L 123.148438 0.683594 L 123.148438 144.019531 L 0.0117188 144.019531 Z M 0.0117188 0.683594 " fill-opacity="1" fill-rule="nonzero"/></g></g></g></g></g></g><g clip-path="url(#fae49b7e2a)"><g clip-path="url(#8ad600e776)"><g transform="matrix(1, 0, 0, 1, 495, 1)"><g clip-path="url(#54892e0f7f)"><g clip-path="url(#4514de9456)"><g clip-path="url(#e6284df99e)"><path fill="#000000" d="M 118.035156 144.199219 L 0.191406 144.199219 L 0.191406 1.035156 L 118.035156 1.035156 Z M 118.035156 144.199219 " fill-opacity="1" fill-rule="nonzero"/></g></g></g></g></g></g><g clip-path="url(#69315484bd)"><g clip-path="url(#0c2293ba9a)"><g transform="matrix(1, 0, 0, 1, 811, 2)"><g clip-path="url(#2c1ff1e50a)"><g clip-path="url(#7760c06875)"><g clip-path="url(#994dba25be)"><path fill="#000000" d="M 124.21875 110.527344 L -0.0859375 110.527344 L -0.0859375 0.417969 L 124.21875 0.417969 Z M 124.21875 110.527344 " fill-opacity="1" fill-rule="nonzero"/></g></g></g></g></g></g><g clip-path="url(#8d2cf5f14e)"><g clip-path="url(#650d1ee0aa)"><g transform="matrix(1, 0, 0, 1, 1305, 1)"><g clip-path="url(#3a2077dd9b)"><g clip-path="url(#b940593163)"><g clip-path="url(#6e7294f81e)"><path fill="#000000" d="M 124.59375 110.851562 L 0.289062 110.851562 L 0.289062 0.742188 L 124.59375 0.742188 Z M 124.59375 110.851562 " fill-opacity="1" fill-rule="nonzero"/></g></g></g></g></g></g><path stroke-linecap="butt" transform="matrix(0.361177, -0.656793, 0.656793, 0.361177, 793.339936, 733.345862)" fill="none" stroke-linejoin="miter" d="M -0.001917 6.501491 L 177.338922 6.500388 " stroke="#000000" stroke-width="13" stroke-opacity="1" stroke-miterlimit="4"/><path stroke-linecap="butt" transform="matrix(0.361177, -0.656793, 0.656793, 0.361177, 789.116166, 722.461264)" fill="none" stroke-linejoin="miter" d="M 0.0012781 6.501429 L 177.342117 6.500326 " stroke="#000000" stroke-width="13" stroke-opacity="1" stroke-miterlimit="4"/><path stroke-linecap="butt" transform="matrix(0.361177, -0.656793, 0.656793, 0.361177, 785.37964, 713.851101)" fill="none" stroke-linejoin="miter" d="M -0.000770789 6.499884 L 177.340068 6.498781 " stroke="#000000" stroke-width="13" stroke-opacity="1" stroke-miterlimit="4"/><g clip-path="url(#c50fec0793)"><g clip-path="url(#760c38d448)"><g clip-path="url(#dd0377ac21)"><g transform="matrix(1, 0, 0, 1, 765, 665)"><g clip-path="url(#7a54e3f38a)"><g clip-path="url(#d2cfdacea5)"><g clip-path="url(#e7feae7824)"><g clip-path="url(#91916fb49d)"><path fill="#000000" d="M 45.394531 -17.488281 L 77.9375 61.097656 L 33.328125 79.570312 L 0.785156 0.980469 Z M 45.394531 -17.488281 " fill-opacity="1" fill-rule="nonzero"/></g></g></g></g></g></g></g></g><g fill="#a6a6a6" fill-opacity="1"><g transform="translate(264.572183, 1110.57797)"><g><path d="M 78.050781 0 L 78.050781 -62.003906 L 135.65625 -146.648438 L 114.332031 -146.648438 L 68.816406 -78.492188 L 23.304688 -146.648438 L 1.980469 -146.648438 L 59.804688 -62.003906 L 59.804688 0 Z M 78.050781 0 "/></g></g></g><g fill="#a6a6a6" fill-opacity="1"><g transform="translate(374.284879, 1110.57797)"><g><path d="M 62.882812 2.636719 C 95.203125 2.636719 115.429688 -22.425781 115.429688 -53.207031 C 115.429688 -83.988281 95.203125 -108.832031 62.882812 -108.832031 C 30.5625 -108.832031 10.332031 -83.988281 10.332031 -53.207031 C 10.332031 -22.425781 30.5625 2.636719 62.882812 2.636719 Z M 62.882812 -12.09375 C 40.234375 -12.09375 27.484375 -31.441406 27.484375 -53.207031 C 27.484375 -74.753906 40.234375 -94.101562 62.882812 -94.101562 C 85.527344 -94.101562 98.058594 -74.753906 98.058594 -53.207031 C 98.058594 -31.441406 85.527344 -12.09375 62.882812 -12.09375 Z M 62.882812 -12.09375 "/></g></g></g><g fill="#a6a6a6" fill-opacity="1"><g transform="translate(500.047785, 1110.57797)"><g><path d="M 104.65625 0 L 104.65625 -106.195312 L 88.167969 -106.195312 L 88.167969 -28.144531 C 82.011719 -19.566406 69.699219 -12.09375 56.726562 -12.09375 C 42.433594 -12.09375 32.980469 -17.589844 32.980469 -36.277344 L 32.980469 -106.195312 L 16.488281 -106.195312 L 16.488281 -31.222656 C 16.488281 -8.136719 28.144531 2.636719 50.347656 2.636719 C 66.179688 2.636719 80.03125 -5.714844 88.167969 -14.949219 L 88.167969 0 Z M 104.65625 0 "/></g></g></g><g fill="#a6a6a6" fill-opacity="1"><g transform="translate(621.193537, 1110.57797)"><g><path d="M 32.980469 0 L 32.980469 -75.195312 C 37.816406 -83.769531 51.667969 -92.125 61.78125 -92.125 C 64.421875 -92.125 66.398438 -91.902344 68.378906 -91.464844 L 68.378906 -108.394531 C 53.867188 -108.394531 41.554688 -100.257812 32.980469 -89.046875 L 32.980469 -106.195312 L 16.488281 -106.195312 L 16.488281 0 Z M 32.980469 0 "/></g></g></g><g fill="#a6a6a6" fill-opacity="1"><g transform="translate(693.749085, 1110.57797)"><g/></g></g><g fill="#a6a6a6" fill-opacity="1"><g transform="translate(750.474317, 1110.57797)"><g><path d="M 43.3125 2.636719 C 52.988281 2.636719 58.925781 -0.21875 63.101562 -4.175781 L 58.265625 -16.488281 C 56.066406 -14.070312 51.667969 -12.09375 47.050781 -12.09375 C 39.796875 -12.09375 36.277344 -17.808594 36.277344 -25.722656 L 36.277344 -91.683594 L 57.824219 -91.683594 L 57.824219 -106.195312 L 36.277344 -106.195312 L 36.277344 -135.21875 L 19.789062 -135.21875 L 19.789062 -106.195312 L 2.199219 -106.195312 L 2.199219 -91.683594 L 19.789062 -91.683594 L 19.789062 -22.207031 C 19.789062 -6.375 27.703125 2.636719 43.3125 2.636719 Z M 43.3125 2.636719 "/></g></g></g><g fill="#a6a6a6" fill-opacity="1"><g transform="translate(815.114661, 1110.57797)"><g><path d="M 32.980469 0 L 32.980469 -75.195312 C 37.816406 -83.769531 51.667969 -92.125 61.78125 -92.125 C 64.421875 -92.125 66.398438 -91.902344 68.378906 -91.464844 L 68.378906 -108.394531 C 53.867188 -108.394531 41.554688 -100.257812 32.980469 -89.046875 L 32.980469 -106.195312 L 16.488281 -106.195312 L 16.488281 0 Z M 32.980469 0 "/></g></g></g><g fill="#a6a6a6" fill-opacity="1"><g transform="translate(887.670209, 1110.57797)"><g><path d="M 99.378906 0 L 99.378906 -72.996094 C 99.378906 -98.71875 80.691406 -108.832031 58.265625 -108.832031 C 40.894531 -108.832031 27.261719 -103.117188 15.832031 -91.246094 L 23.527344 -79.8125 C 32.980469 -89.925781 43.3125 -94.542969 56.066406 -94.542969 C 71.457031 -94.542969 82.890625 -86.40625 82.890625 -72.117188 L 82.890625 -52.988281 C 74.316406 -62.882812 62.222656 -67.5 47.710938 -67.5 C 29.683594 -67.5 10.554688 -56.285156 10.554688 -32.539062 C 10.554688 -9.453125 29.683594 2.636719 47.710938 2.636719 C 62.003906 2.636719 74.09375 -2.417969 82.890625 -12.09375 L 82.890625 0 Z M 82.890625 -22.425781 C 76.511719 -13.632812 65.300781 -9.234375 53.648438 -9.234375 C 38.257812 -9.234375 27.484375 -18.910156 27.484375 -32.320312 C 27.484375 -45.953125 38.257812 -55.625 53.648438 -55.625 C 65.300781 -55.625 76.511719 -51.230469 82.890625 -42.433594 Z M 82.890625 -22.425781 "/></g></g></g><g fill="#a6a6a6" fill-opacity="1"><g transform="translate(1003.539144, 1110.57797)"><g><path d="M 109.933594 0 L 109.933594 -146.648438 L 93.441406 -146.648438 L 93.441406 -90.144531 C 84.867188 -101.796875 71.894531 -108.832031 57.605469 -108.832031 C 29.683594 -108.832031 10.332031 -86.847656 10.332031 -52.988281 C 10.332031 -18.46875 29.902344 2.636719 57.605469 2.636719 C 72.554688 2.636719 85.527344 -5.058594 93.441406 -15.832031 L 93.441406 0 Z M 93.441406 -28.800781 C 87.507812 -19.566406 74.753906 -12.09375 61.5625 -12.09375 C 40.234375 -12.09375 27.484375 -29.460938 27.484375 -52.988281 C 27.484375 -76.511719 40.234375 -94.101562 61.5625 -94.101562 C 74.753906 -94.101562 87.507812 -86.1875 93.441406 -76.953125 Z M 93.441406 -28.800781 "/></g></g></g><g fill="#a6a6a6" fill-opacity="1"><g transform="translate(1129.961623, 1110.57797)"><g><path d="M 24.625 -124.003906 C 30.78125 -124.003906 35.839844 -129.0625 35.839844 -135.21875 C 35.839844 -141.375 30.78125 -146.210938 24.625 -146.210938 C 18.6875 -146.210938 13.632812 -141.375 13.632812 -135.21875 C 13.632812 -129.0625 18.6875 -124.003906 24.625 -124.003906 Z M 32.980469 0 L 32.980469 -106.195312 L 16.488281 -106.195312 L 16.488281 0 Z M 32.980469 0 "/></g></g></g><g fill="#a6a6a6" fill-opacity="1"><g transform="translate(1179.431305, 1110.57797)"><g><path d="M 104.65625 0 L 104.65625 -74.535156 C 104.65625 -97.621094 93.003906 -108.832031 70.796875 -108.832031 C 54.964844 -108.832031 40.457031 -99.597656 32.980469 -90.804688 L 32.980469 -106.195312 L 16.488281 -106.195312 L 16.488281 0 L 32.980469 0 L 32.980469 -77.613281 C 39.136719 -86.1875 51.449219 -94.101562 64.421875 -94.101562 C 78.710938 -94.101562 88.167969 -88.167969 88.167969 -69.476562 L 88.167969 0 Z M 104.65625 0 "/></g></g></g><g fill="#a6a6a6" fill-opacity="1"><g transform="translate(1300.577103, 1110.57797)"><g><path d="M 16.269531 27.261719 C 28.800781 39.574219 41.113281 43.09375 59.144531 43.09375 C 85.089844 43.09375 109.714844 32.101562 109.714844 -3.078125 L 109.714844 -106.195312 L 93.222656 -106.195312 L 93.222656 -90.144531 C 84.648438 -101.796875 71.894531 -108.832031 57.605469 -108.832031 C 29.683594 -108.832031 10.332031 -87.726562 10.332031 -53.648438 C 10.332031 -19.347656 29.902344 1.320312 57.605469 1.320312 C 72.554688 1.320312 85.527344 -6.816406 93.222656 -17.589844 L 93.222656 -2.417969 C 93.222656 20.886719 76.734375 29.460938 59.144531 29.460938 C 43.972656 29.460938 33.417969 25.503906 24.625 14.949219 Z M 93.222656 -30.5625 C 87.507812 -21.328125 74.753906 -13.191406 61.5625 -13.191406 C 40.234375 -13.191406 27.484375 -30.339844 27.484375 -53.648438 C 27.484375 -77.171875 40.234375 -94.101562 61.5625 -94.101562 C 74.753906 -94.101562 87.507812 -86.1875 93.222656 -76.953125 Z M 93.222656 -30.5625 "/></g></g></g><g fill="#a6a6a6" fill-opacity="1"><g transform="translate(1426.77971, 1110.57797)"><g/></g></g><g fill="#a6a6a6" fill-opacity="1"><g transform="translate(1483.504987, 1110.57797)"><g><path d="M 7.253906 -14.070312 C 18.027344 -2.636719 32.761719 2.636719 50.128906 2.636719 C 77.613281 2.636719 91.902344 -11.652344 91.902344 -29.460938 C 91.902344 -52.988281 70.578125 -58.265625 52.109375 -62.441406 C 38.257812 -65.738281 26.164062 -69.039062 26.164062 -79.371094 C 26.164062 -88.824219 35.179688 -95.421875 49.691406 -95.421875 C 63.320312 -95.421875 74.972656 -89.707031 81.351562 -82.011719 L 89.046875 -93.441406 C 80.472656 -102.019531 67.71875 -108.832031 49.691406 -108.832031 C 24.40625 -108.832031 10.113281 -94.761719 10.113281 -78.273438 C 10.113281 -56.285156 30.5625 -51.449219 48.589844 -47.269531 C 62.882812 -43.753906 75.855469 -40.015625 75.855469 -28.363281 C 75.855469 -18.027344 67.058594 -10.773438 50.789062 -10.773438 C 36.277344 -10.773438 22.867188 -17.808594 15.832031 -25.945312 Z M 7.253906 -14.070312 "/></g></g></g><g fill="#a6a6a6" fill-opacity="1"><g transform="translate(1585.742298, 1110.57797)"><g><path d="M 62.882812 2.636719 C 95.203125 2.636719 115.429688 -22.425781 115.429688 -53.207031 C 115.429688 -83.988281 95.203125 -108.832031 62.882812 -108.832031 C 30.5625 -108.832031 10.332031 -83.988281 10.332031 -53.207031 C 10.332031 -22.425781 30.5625 2.636719 62.882812 2.636719 Z M 62.882812 -12.09375 C 40.234375 -12.09375 27.484375 -31.441406 27.484375 -53.207031 C 27.484375 -74.753906 40.234375 -94.101562 62.882812 -94.101562 C 85.527344 -94.101562 98.058594 -74.753906 98.058594 -53.207031 C 98.058594 -31.441406 85.527344 -12.09375 62.882812 -12.09375 Z M 62.882812 -12.09375 "/></g></g></g><g fill="#a6a6a6" fill-opacity="1"><g transform="translate(1711.505166, 1110.57797)"><g><path d="M 104.65625 0 L 104.65625 -106.195312 L 88.167969 -106.195312 L 88.167969 -28.144531 C 82.011719 -19.566406 69.699219 -12.09375 56.726562 -12.09375 C 42.433594 -12.09375 32.980469 -17.589844 32.980469 -36.277344 L 32.980469 -106.195312 L 16.488281 -106.195312 L 16.488281 -31.222656 C 16.488281 -8.136719 28.144531 2.636719 50.347656 2.636719 C 66.179688 2.636719 80.03125 -5.714844 88.167969 -14.949219 L 88.167969 0 Z M 104.65625 0 "/></g></g></g><g fill="#a6a6a6" fill-opacity="1"><g transform="translate(1832.650873, 1110.57797)"><g><path d="M 32.980469 0 L 32.980469 -75.195312 C 37.816406 -83.769531 51.667969 -92.125 61.78125 -92.125 C 64.421875 -92.125 66.398438 -91.902344 68.378906 -91.464844 L 68.378906 -108.394531 C 53.867188 -108.394531 41.554688 -100.257812 32.980469 -89.046875 L 32.980469 -106.195312 L 16.488281 -106.195312 L 16.488281 0 Z M 32.980469 0 "/></g></g></g><g fill="#a6a6a6" fill-opacity="1"><g transform="translate(1905.206466, 1110.57797)"><g><path d="M 10.332031 -53.207031 C 10.332031 -21.546875 31.660156 2.636719 63.320312 2.636719 C 82.667969 2.636719 94.101562 -5.277344 102.238281 -15.832031 L 91.246094 -25.945312 C 84.207031 -16.488281 75.195312 -12.09375 64.199219 -12.09375 C 41.554688 -12.09375 27.484375 -29.683594 27.484375 -53.207031 C 27.484375 -76.734375 41.554688 -94.101562 64.199219 -94.101562 C 75.195312 -94.101562 84.207031 -89.925781 91.246094 -80.25 L 102.238281 -90.363281 C 94.101562 -100.917969 82.667969 -108.832031 63.320312 -108.832031 C 31.660156 -108.832031 10.332031 -84.648438 10.332031 -53.207031 Z M 10.332031 -53.207031 "/></g></g></g><g fill="#a6a6a6" fill-opacity="1"><g transform="translate(2014.039674, 1110.57797)"><g><path d="M 10.332031 -53.207031 C 10.332031 -20.007812 32.980469 2.636719 64.421875 2.636719 C 81.789062 2.636719 96.082031 -3.078125 106.636719 -13.632812 L 98.71875 -24.40625 C 90.363281 -15.832031 78.050781 -10.992188 65.960938 -10.992188 C 43.09375 -10.992188 29.023438 -27.703125 27.703125 -47.710938 L 113.671875 -47.710938 L 113.671875 -51.886719 C 113.671875 -83.769531 94.761719 -108.832031 62.660156 -108.832031 C 32.320312 -108.832031 10.332031 -83.988281 10.332031 -53.207031 Z M 62.441406 -95.203125 C 86.628906 -95.203125 97.179688 -75.632812 97.402344 -59.804688 L 27.703125 -59.804688 C 28.582031 -76.074219 39.796875 -95.203125 62.441406 -95.203125 Z M 62.441406 -95.203125 "/></g></g></g><g fill="#a6a6a6" fill-opacity="1"><g transform="translate(2137.823812, 1110.57797)"><g/></g></g><g fill="#a6a6a6" fill-opacity="1"><g transform="translate(2194.548998, 1110.57797)"><g><path d="M 62.882812 2.636719 C 95.203125 2.636719 115.429688 -22.425781 115.429688 -53.207031 C 115.429688 -83.988281 95.203125 -108.832031 62.882812 -108.832031 C 30.5625 -108.832031 10.332031 -83.988281 10.332031 -53.207031 C 10.332031 -22.425781 30.5625 2.636719 62.882812 2.636719 Z M 62.882812 -12.09375 C 40.234375 -12.09375 27.484375 -31.441406 27.484375 -53.207031 C 27.484375 -74.753906 40.234375 -94.101562 62.882812 -94.101562 C 85.527344 -94.101562 98.058594 -74.753906 98.058594 -53.207031 C 98.058594 -31.441406 85.527344 -12.09375 62.882812 -12.09375 Z M 62.882812 -12.09375 "/></g></g></g><g fill="#a6a6a6" fill-opacity="1"><g transform="translate(2320.312053, 1110.57797)"><g><path d="M 59.144531 -91.683594 L 59.144531 -106.195312 L 37.597656 -106.195312 L 37.597656 -114.332031 C 37.597656 -127.742188 43.535156 -135.21875 54.308594 -135.21875 C 58.042969 -135.21875 61.121094 -134.335938 63.761719 -132.796875 L 67.9375 -145.109375 C 63.761719 -147.75 58.042969 -148.847656 51.886719 -148.847656 C 33.417969 -148.847656 21.105469 -136.316406 21.105469 -114.332031 L 21.105469 -106.195312 L 3.519531 -106.195312 L 3.519531 -91.683594 L 21.105469 -91.683594 L 21.105469 0 L 37.597656 0 L 37.597656 -91.683594 Z M 59.144531 -91.683594 "/></g></g></g><g fill="#a6a6a6" fill-opacity="1"><g transform="translate(2382.533881, 1110.57797)"><g/></g></g><g fill="#a6a6a6" fill-opacity="1"><g transform="translate(2439.259067, 1110.57797)"><g><path d="M 43.3125 2.636719 C 52.988281 2.636719 58.925781 -0.21875 63.101562 -4.175781 L 58.265625 -16.488281 C 56.066406 -14.070312 51.667969 -12.09375 47.050781 -12.09375 C 39.796875 -12.09375 36.277344 -17.808594 36.277344 -25.722656 L 36.277344 -91.683594 L 57.824219 -91.683594 L 57.824219 -106.195312 L 36.277344 -106.195312 L 36.277344 -135.21875 L 19.789062 -135.21875 L 19.789062 -106.195312 L 2.199219 -106.195312 L 2.199219 -91.683594 L 19.789062 -91.683594 L 19.789062 -22.207031 C 19.789062 -6.375 27.703125 2.636719 43.3125 2.636719 Z M 43.3125 2.636719 "/></g></g><g transform="translate(2503.899554, 1110.57797)"><g><path d="M 32.980469 0 L 32.980469 -75.195312 C 37.816406 -83.769531 51.667969 -92.125 61.78125 -92.125 C 64.421875 -92.125 66.398438 -91.902344 68.378906 -91.464844 L 68.378906 -108.394531 C 53.867188 -108.394531 41.554688 -100.257812 32.980469 -89.046875 L 32.980469 -106.195312 L 16.488281 -106.195312 L 16.488281 0 Z M 32.980469 0 "/></g></g></g><g fill="#a6a6a6" fill-opacity="1"><g transform="translate(2576.454961, 1110.57797)"><g><path d="M 104.65625 0 L 104.65625 -106.195312 L 88.167969 -106.195312 L 88.167969 -28.144531 C 82.011719 -19.566406 69.699219 -12.09375 56.726562 -12.09375 C 42.433594 -12.09375 32.980469 -17.589844 32.980469 -36.277344 L 32.980469 -106.195312 L 16.488281 -106.195312 L 16.488281 -31.222656 C 16.488281 -8.136719 28.144531 2.636719 50.347656 2.636719 C 66.179688 2.636719 80.03125 -5.714844 88.167969 -14.949219 L 88.167969 0 Z M 104.65625 0 "/></g></g></g><g fill="#a6a6a6" fill-opacity="1"><g transform="translate(2697.600667, 1110.57797)"><g><path d="M 43.3125 2.636719 C 52.988281 2.636719 58.925781 -0.21875 63.101562 -4.175781 L 58.265625 -16.488281 C 56.066406 -14.070312 51.667969 -12.09375 47.050781 -12.09375 C 39.796875 -12.09375 36.277344 -17.808594 36.277344 -25.722656 L 36.277344 -91.683594 L 57.824219 -91.683594 L 57.824219 -106.195312 L 36.277344 -106.195312 L 36.277344 -135.21875 L 19.789062 -135.21875 L 19.789062 -106.195312 L 2.199219 -106.195312 L 2.199219 -91.683594 L 19.789062 -91.683594 L 19.789062 -22.207031 C 19.789062 -6.375 27.703125 2.636719 43.3125 2.636719 Z M 43.3125 2.636719 "/></g></g><g transform="translate(2762.241154, 1110.57797)"><g><path d="M 104.875 0 L 104.875 -74.972656 C 104.875 -98.058594 93.222656 -108.832031 71.015625 -108.832031 C 54.964844 -108.832031 40.457031 -99.597656 32.980469 -90.804688 L 32.980469 -146.648438 L 16.488281 -146.648438 L 16.488281 0 L 32.980469 0 L 32.980469 -77.613281 C 39.355469 -86.1875 51.667969 -94.101562 64.421875 -94.101562 C 78.710938 -94.101562 88.386719 -88.605469 88.386719 -69.917969 L 88.386719 0 Z M 104.875 0 "/></g></g></g></svg>