<svg xmlns="http://www.w3.org/2000/svg" xmlns:xlink="http://www.w3.org/1999/xlink" width="3818" zoomAndPan="magnify" viewBox="0 0 2863.5 872.249978" height="1163" preserveAspectRatio="xMidYMid meet" version="1.0"><defs><clipPath id="e4b0ffbceb"><path d="M 666 0 L 1165 0 L 1165 871.5 L 666 871.5 Z M 666 0 " clip-rule="nonzero"/></clipPath><clipPath id="40e3acc38d"><path d="M 791 0 L 1292 0 L 1292 871.5 L 791 871.5 Z M 791 0 " clip-rule="nonzero"/></clipPath><clipPath id="70f14d80f2"><path d="M 787 0 L 1293 0 L 1293 871.5 L 787 871.5 Z M 787 0 " clip-rule="nonzero"/></clipPath><clipPath id="eb70550cd9"><path d="M 664 0 L 1166 0 L 1166 871.5 L 664 871.5 Z M 664 0 " clip-rule="nonzero"/></clipPath><clipPath id="f2ab624f7b"><path d="M 1384.101562 3.238281 L 1507.011719 3.238281 L 1507.011719 867.917969 L 1384.101562 867.917969 Z M 1384.101562 3.238281 " clip-rule="nonzero"/></clipPath><clipPath id="732c944093"><path d="M 1387.097656 3.238281 L 1504.011719 3.238281 C 1505.667969 3.238281 1507.011719 4.578125 1507.011719 6.234375 L 1507.011719 864.890625 C 1507.011719 866.546875 1505.667969 867.886719 1504.011719 867.886719 L 1387.097656 867.886719 C 1385.445312 867.886719 1384.101562 866.546875 1384.101562 864.890625 L 1384.101562 6.234375 C 1384.101562 4.578125 1385.445312 3.238281 1387.097656 3.238281 Z M 1387.097656 3.238281 " clip-rule="nonzero"/></clipPath><clipPath id="422e86ef22"><path d="M 0.101562 0.238281 L 123.011719 0.238281 L 123.011719 864.917969 L 0.101562 864.917969 Z M 0.101562 0.238281 " clip-rule="nonzero"/></clipPath><clipPath id="78dad6744f"><path d="M 3.097656 0.238281 L 120.011719 0.238281 C 121.667969 0.238281 123.011719 1.578125 123.011719 3.234375 L 123.011719 861.890625 C 123.011719 863.546875 121.667969 864.886719 120.011719 864.886719 L 3.097656 864.886719 C 1.445312 864.886719 0.101562 863.546875 0.101562 861.890625 L 0.101562 3.234375 C 0.101562 1.578125 1.445312 0.238281 3.097656 0.238281 Z M 3.097656 0.238281 " clip-rule="nonzero"/></clipPath><clipPath id="4c7b3ad27d"><rect x="0" width="124" y="0" height="865"/></clipPath><clipPath id="d44922fd52"><path d="M 1626.1875 125.332031 L 1749.097656 125.332031 L 1749.097656 743 L 1626.1875 743 Z M 1626.1875 125.332031 " clip-rule="nonzero"/></clipPath><clipPath id="a772f4d382"><path d="M 1630.683594 125.332031 L 1744.601562 125.332031 C 1745.792969 125.332031 1746.9375 125.808594 1747.78125 126.648438 C 1748.625 127.492188 1749.097656 128.636719 1749.097656 129.828125 L 1749.097656 738.472656 C 1749.097656 739.667969 1748.625 740.808594 1747.78125 741.652344 C 1746.9375 742.496094 1745.792969 742.96875 1744.601562 742.96875 L 1630.683594 742.96875 C 1629.492188 742.96875 1628.347656 742.496094 1627.507812 741.652344 C 1626.664062 740.808594 1626.1875 739.667969 1626.1875 738.472656 L 1626.1875 129.828125 C 1626.1875 128.636719 1626.664062 127.492188 1627.507812 126.648438 C 1628.347656 125.808594 1629.492188 125.332031 1630.683594 125.332031 Z M 1630.683594 125.332031 " clip-rule="nonzero"/></clipPath><clipPath id="6924508762"><path d="M 0.1875 0.332031 L 123.097656 0.332031 L 123.097656 618 L 0.1875 618 Z M 0.1875 0.332031 " clip-rule="nonzero"/></clipPath><clipPath id="bf43716bb1"><path d="M 4.683594 0.332031 L 118.601562 0.332031 C 119.792969 0.332031 120.9375 0.808594 121.78125 1.648438 C 122.625 2.492188 123.097656 3.636719 123.097656 4.828125 L 123.097656 613.472656 C 123.097656 614.667969 122.625 615.808594 121.78125 616.652344 C 120.9375 617.496094 119.792969 617.96875 118.601562 617.96875 L 4.683594 617.96875 C 3.492188 617.96875 2.347656 617.496094 1.507812 616.652344 C 0.664062 615.808594 0.1875 614.667969 0.1875 613.472656 L 0.1875 4.828125 C 0.1875 3.636719 0.664062 2.492188 1.507812 1.648438 C 2.347656 0.808594 3.492188 0.332031 4.683594 0.332031 Z M 4.683594 0.332031 " clip-rule="nonzero"/></clipPath><clipPath id="9a0af8aee9"><rect x="0" width="124" y="0" height="618"/></clipPath><clipPath id="056662ad33"><path d="M 2053.210938 125.332031 L 2176.121094 125.332031 L 2176.121094 742.96875 L 2053.210938 742.96875 Z M 2053.210938 125.332031 " clip-rule="nonzero"/></clipPath><clipPath id="b56019f242"><path d="M 0.210938 0.332031 L 123.121094 0.332031 L 123.121094 617.96875 L 0.210938 617.96875 Z M 0.210938 0.332031 " clip-rule="nonzero"/></clipPath><clipPath id="6475f8baca"><rect x="0" width="124" y="0" height="618"/></clipPath><clipPath id="d2f79e6bd3"><path d="M 2286.152344 3.238281 L 2409.03125 3.238281 L 2409.03125 867.710938 L 2286.152344 867.710938 Z M 2286.152344 3.238281 " clip-rule="nonzero"/></clipPath><clipPath id="c350a4543b"><path d="M 2409.03125 6.234375 L 2409.03125 864.507812 C 2409.03125 866.160156 2407.6875 867.503906 2406.035156 867.503906 L 2289.148438 867.503906 C 2287.492188 867.503906 2286.152344 866.160156 2286.152344 864.507812 L 2286.152344 6.234375 C 2286.152344 4.578125 2287.492188 3.238281 2289.148438 3.238281 L 2406.035156 3.238281 C 2407.6875 3.238281 2409.03125 4.578125 2409.03125 6.234375 Z M 2409.03125 6.234375 " clip-rule="nonzero"/></clipPath><clipPath id="a6390cd2aa"><path d="M 0.152344 0.238281 L 123.03125 0.238281 L 123.03125 864.574219 L 0.152344 864.574219 Z M 0.152344 0.238281 " clip-rule="nonzero"/></clipPath><clipPath id="649d429594"><path d="M 123.03125 3.234375 L 123.03125 861.507812 C 123.03125 863.160156 121.6875 864.503906 120.035156 864.503906 L 3.148438 864.503906 C 1.492188 864.503906 0.152344 863.160156 0.152344 861.507812 L 0.152344 3.234375 C 0.152344 1.578125 1.492188 0.238281 3.148438 0.238281 L 120.035156 0.238281 C 121.6875 0.238281 123.03125 1.578125 123.03125 3.234375 Z M 123.03125 3.234375 " clip-rule="nonzero"/></clipPath><clipPath id="2b36c3a367"><rect x="0" width="124" y="0" height="865"/></clipPath><clipPath id="eec001fbd2"><path d="M 2738.917969 3.238281 L 2861.828125 3.238281 L 2861.828125 868.878906 L 2738.917969 868.878906 Z M 2738.917969 3.238281 " clip-rule="nonzero"/></clipPath><clipPath id="f4cf26bf7d"><path d="M 2741.917969 3.238281 L 2858.828125 3.238281 C 2860.484375 3.238281 2861.828125 4.578125 2861.828125 6.234375 L 2861.828125 865.699219 C 2861.828125 867.355469 2860.484375 868.695312 2858.828125 868.695312 L 2741.917969 868.695312 C 2740.261719 868.695312 2738.917969 867.355469 2738.917969 865.699219 L 2738.917969 6.234375 C 2738.917969 4.578125 2740.261719 3.238281 2741.917969 3.238281 Z M 2741.917969 3.238281 " clip-rule="nonzero"/></clipPath><clipPath id="5015619b58"><path d="M 0.917969 0.238281 L 123.828125 0.238281 L 123.828125 865.773438 L 0.917969 865.773438 Z M 0.917969 0.238281 " clip-rule="nonzero"/></clipPath><clipPath id="66fe3ee96f"><path d="M 3.917969 0.238281 L 120.828125 0.238281 C 122.484375 0.238281 123.828125 1.578125 123.828125 3.234375 L 123.828125 862.699219 C 123.828125 864.355469 122.484375 865.695312 120.828125 865.695312 L 3.917969 865.695312 C 2.261719 865.695312 0.917969 864.355469 0.917969 862.699219 L 0.917969 3.234375 C 0.917969 1.578125 2.261719 0.238281 3.917969 0.238281 Z M 3.917969 0.238281 " clip-rule="nonzero"/></clipPath><clipPath id="540d003a4d"><rect x="0" width="124" y="0" height="866"/></clipPath><clipPath id="c00553aa5f"><path d="M 1749.097656 743.777344 L 2053.210938 743.777344 L 2053.210938 866.6875 L 1749.097656 866.6875 Z M 1749.097656 743.777344 " clip-rule="nonzero"/></clipPath><clipPath id="b167d85799"><path d="M 0.0976562 0.777344 L 304.210938 0.777344 L 304.210938 123.6875 L 0.0976562 123.6875 Z M 0.0976562 0.777344 " clip-rule="nonzero"/></clipPath><clipPath id="6cec477057"><rect x="0" width="305" y="0" height="124"/></clipPath><clipPath id="88f6b2cce8"><path d="M 2303 0 L 2847 0 L 2847 871 L 2303 871 Z M 2303 0 " clip-rule="nonzero"/></clipPath><clipPath id="de2a8e5d03"><path d="M 2303.332031 58.019531 L 2411.683594 0 L 2846.878906 812.738281 L 2738.527344 870.757812 Z M 2303.332031 58.019531 " clip-rule="nonzero"/></clipPath><clipPath id="efd716ed51"><path d="M 0.242188 0 L 544 0 L 544 870.929688 L 0.242188 870.929688 Z M 0.242188 0 " clip-rule="nonzero"/></clipPath><clipPath id="534714a598"><path d="M 0.332031 58.019531 L 108.683594 0 L 543.878906 812.738281 L 435.527344 870.757812 Z M 0.332031 58.019531 " clip-rule="nonzero"/></clipPath><clipPath id="f317764879"><rect x="0" width="544" y="0" height="871"/></clipPath><clipPath id="4025884c03"><path d="M 1749.097656 2.421875 L 2053.210938 2.421875 L 2053.210938 125.328125 L 1749.097656 125.328125 Z M 1749.097656 2.421875 " clip-rule="nonzero"/></clipPath><clipPath id="f2b14a97b6"><path d="M 0.0976562 0.421875 L 304.210938 0.421875 L 304.210938 123.328125 L 0.0976562 123.328125 Z M 0.0976562 0.421875 " clip-rule="nonzero"/></clipPath><clipPath id="c45306cb13"><rect x="0" width="305" y="0" height="124"/></clipPath><clipPath id="e464452d38"><path d="M 0.980469 0 L 357 0 L 357 871.5 L 0.980469 871.5 Z M 0.980469 0 " clip-rule="nonzero"/></clipPath><clipPath id="2da4a1a2a6"><path d="M 120 148 L 419 148 L 419 871.5 L 120 871.5 Z M 120 148 " clip-rule="nonzero"/></clipPath><clipPath id="7a0c487e79"><path d="M 0.980469 867 L 126 867 L 126 869 L 0.980469 869 Z M 0.980469 867 " clip-rule="nonzero"/></clipPath><clipPath id="e14735e24d"><path d="M 666 863 L 801 863 L 801 871.5 L 666 871.5 Z M 666 863 " clip-rule="nonzero"/></clipPath><clipPath id="b3a7151e9f"><path d="M 1626.746094 2.203125 L 1751.226562 2.203125 L 1751.226562 132 L 1626.746094 132 Z M 1626.746094 2.203125 " clip-rule="nonzero"/></clipPath><clipPath id="e9b17537ba"><path d="M 1626.746094 131.566406 C 1626.746094 97.625 1640.023438 64.4375 1663.207031 40.4375 C 1686.386719 16.433594 1718.441406 2.6875 1751.226562 2.6875 L 1751.226562 68.4375 C 1735.167969 68.4375 1719.464844 75.171875 1708.109375 86.925781 C 1696.753906 98.683594 1690.25 114.941406 1690.25 131.566406 Z M 1626.746094 131.566406 " clip-rule="nonzero"/></clipPath><clipPath id="d4fc96659d"><path d="M 0.746094 0.636719 L 125.226562 0.636719 L 125.226562 129.648438 L 0.746094 129.648438 Z M 0.746094 0.636719 " clip-rule="nonzero"/></clipPath><clipPath id="3ef9e72649"><path d="M 0.746094 129.566406 C 0.746094 95.625 14.023438 62.4375 37.207031 38.4375 C 60.386719 14.433594 92.441406 0.6875 125.226562 0.6875 L 125.226562 66.4375 C 109.167969 66.4375 93.464844 73.171875 82.109375 84.925781 C 70.753906 96.683594 64.25 112.941406 64.25 129.566406 Z M 0.746094 129.566406 " clip-rule="nonzero"/></clipPath><clipPath id="e3a882ebdc"><rect x="0" width="126" y="0" height="130"/></clipPath><clipPath id="19bd0015e1"><path d="M 1702.101562 80.957031 L 1794.664062 80.957031 L 1794.664062 167.441406 L 1702.101562 167.441406 Z M 1702.101562 80.957031 " clip-rule="nonzero"/></clipPath><clipPath id="8bb7f5504d"><path d="M 1702.101562 167.441406 C 1702.101562 144.664062 1711.949219 122.394531 1729.144531 106.289062 C 1746.339844 90.183594 1770.117188 80.957031 1794.433594 80.957031 L 1794.433594 125.078125 C 1782.523438 125.078125 1770.875 129.597656 1762.453125 137.484375 C 1754.03125 145.375 1749.207031 156.28125 1749.207031 167.441406 Z M 1702.101562 167.441406 " clip-rule="nonzero"/></clipPath><clipPath id="e61f4804ff"><path d="M 0.101562 0.957031 L 92.636719 0.957031 L 92.636719 87.441406 L 0.101562 87.441406 Z M 0.101562 0.957031 " clip-rule="nonzero"/></clipPath><clipPath id="268c9c58ec"><path d="M 0.101562 87.441406 C 0.101562 64.664062 9.949219 42.394531 27.144531 26.289062 C 44.339844 10.183594 68.117188 0.957031 92.433594 0.957031 L 92.433594 45.078125 C 80.523438 45.078125 68.875 49.597656 60.453125 57.484375 C 52.03125 65.375 47.207031 76.28125 47.207031 87.441406 Z M 0.101562 87.441406 " clip-rule="nonzero"/></clipPath><clipPath id="52c078e4e1"><rect x="0" width="93" y="0" height="88"/></clipPath><clipPath id="590ebb2c9b"><path d="M 1682.769531 54.441406 L 1775.332031 54.441406 L 1775.332031 140.925781 L 1682.769531 140.925781 Z M 1682.769531 54.441406 " clip-rule="nonzero"/></clipPath><clipPath id="b9e68c90b3"><path d="M 1682.769531 140.925781 C 1682.769531 118.148438 1692.617188 95.878906 1709.8125 79.773438 C 1727.007812 63.667969 1750.785156 54.441406 1775.101562 54.441406 L 1775.101562 98.5625 C 1763.191406 98.5625 1751.542969 103.082031 1743.121094 110.96875 C 1734.699219 118.859375 1729.875 129.765625 1729.875 140.925781 Z M 1682.769531 140.925781 " clip-rule="nonzero"/></clipPath><clipPath id="5c8a2e11e7"><path d="M 0.769531 0.441406 L 93 0.441406 L 93 86.925781 L 0.769531 86.925781 Z M 0.769531 0.441406 " clip-rule="nonzero"/></clipPath><clipPath id="d697443741"><path d="M 0.769531 86.925781 C 0.769531 64.148438 10.617188 41.878906 27.8125 25.773438 C 45.007812 9.667969 68.785156 0.441406 93.101562 0.441406 L 93.101562 44.5625 C 81.191406 44.5625 69.542969 49.082031 61.121094 56.96875 C 52.699219 64.859375 47.875 75.765625 47.875 86.925781 Z M 0.769531 86.925781 " clip-rule="nonzero"/></clipPath><clipPath id="9867a9eea2"><rect x="0" width="94" y="0" height="87"/></clipPath><clipPath id="3597cca5bd"><path d="M 1626.257812 742.207031 L 1756 742.207031 L 1756 866.6875 L 1626.257812 866.6875 Z M 1626.257812 742.207031 " clip-rule="nonzero"/></clipPath><clipPath id="1a5d74cb8f"><path d="M 1755.621094 866.6875 C 1721.679688 866.6875 1688.492188 853.410156 1664.492188 830.230469 C 1640.492188 807.046875 1626.742188 774.992188 1626.742188 742.207031 L 1692.492188 742.207031 C 1692.492188 758.265625 1699.226562 773.96875 1710.984375 785.324219 C 1722.738281 796.679688 1738.996094 803.183594 1755.621094 803.183594 Z M 1755.621094 866.6875 " clip-rule="nonzero"/></clipPath><clipPath id="a52083f796"><path d="M 0.542969 0.207031 L 129.792969 0.207031 L 129.792969 124.6875 L 0.542969 124.6875 Z M 0.542969 0.207031 " clip-rule="nonzero"/></clipPath><clipPath id="6036cd620f"><path d="M 129.621094 124.6875 C 95.679688 124.6875 62.492188 111.410156 38.492188 88.230469 C 14.492188 65.046875 0.742188 32.992188 0.742188 0.207031 L 66.492188 0.207031 C 66.492188 16.265625 73.226562 31.96875 84.984375 43.324219 C 96.738281 54.679688 112.996094 61.183594 129.621094 61.183594 Z M 129.621094 124.6875 " clip-rule="nonzero"/></clipPath><clipPath id="c51a95bb6b"><rect x="0" width="130" y="0" height="125"/></clipPath><clipPath id="6d3d7fca98"><path d="M 1705.011719 698.765625 L 1791.492188 698.765625 L 1791.492188 791.328125 L 1705.011719 791.328125 Z M 1705.011719 698.765625 " clip-rule="nonzero"/></clipPath><clipPath id="4ecea878f4"><path d="M 1791.492188 791.328125 C 1768.71875 791.328125 1746.445312 781.480469 1730.339844 764.285156 C 1714.238281 747.09375 1705.011719 723.316406 1705.011719 698.996094 L 1749.132812 698.996094 C 1749.132812 710.910156 1753.652344 722.554688 1761.539062 730.980469 C 1769.429688 739.402344 1780.335938 744.226562 1791.492188 744.226562 Z M 1791.492188 791.328125 " clip-rule="nonzero"/></clipPath><clipPath id="769859edaa"><path d="M 0.0117188 1 L 86.492188 1 L 86.492188 93.328125 L 0.0117188 93.328125 Z M 0.0117188 1 " clip-rule="nonzero"/></clipPath><clipPath id="b829828be8"><path d="M 86.492188 93.328125 C 63.71875 93.328125 41.445312 83.480469 25.339844 66.285156 C 9.238281 49.09375 0.0117188 25.316406 0.0117188 0.996094 L 44.132812 0.996094 C 44.132812 12.910156 48.652344 24.554688 56.539062 32.980469 C 64.429688 41.402344 75.335938 46.226562 86.492188 46.226562 Z M 86.492188 93.328125 " clip-rule="nonzero"/></clipPath><clipPath id="8f159a9516"><rect x="0" width="87" y="0" height="94"/></clipPath><clipPath id="e42e452065"><path d="M 1678.496094 718.097656 L 1764.976562 718.097656 L 1764.976562 810.660156 L 1678.496094 810.660156 Z M 1678.496094 718.097656 " clip-rule="nonzero"/></clipPath><clipPath id="5267056cb0"><path d="M 1764.976562 810.660156 C 1742.203125 810.660156 1719.929688 800.8125 1703.824219 783.617188 C 1687.722656 766.425781 1678.496094 742.648438 1678.496094 718.328125 L 1722.617188 718.328125 C 1722.617188 730.242188 1727.136719 741.886719 1735.023438 750.3125 C 1742.914062 758.734375 1753.820312 763.558594 1764.976562 763.558594 Z M 1764.976562 810.660156 " clip-rule="nonzero"/></clipPath><clipPath id="a6f7dc07df"><path d="M 0.496094 0.183594 L 86.976562 0.183594 L 86.976562 92.660156 L 0.496094 92.660156 Z M 0.496094 0.183594 " clip-rule="nonzero"/></clipPath><clipPath id="4306f40d57"><path d="M 86.976562 92.660156 C 64.203125 92.660156 41.929688 82.8125 25.824219 65.617188 C 9.722656 48.425781 0.496094 24.648438 0.496094 0.328125 L 44.617188 0.328125 C 44.617188 12.242188 49.136719 23.886719 57.023438 32.3125 C 64.914062 40.734375 75.820312 45.558594 86.976562 45.558594 Z M 86.976562 92.660156 " clip-rule="nonzero"/></clipPath><clipPath id="a800da72ee"><rect x="0" width="87" y="0" height="93"/></clipPath><clipPath id="eab5a072c2"><path d="M 2051.636719 737.347656 L 2176.113281 737.347656 L 2176.113281 867 L 2051.636719 867 Z M 2051.636719 737.347656 " clip-rule="nonzero"/></clipPath><clipPath id="d6d96ac893"><path d="M 2176.113281 737.8125 C 2176.113281 771.753906 2162.835938 804.941406 2139.65625 828.941406 C 2116.472656 852.941406 2084.417969 866.691406 2051.636719 866.691406 L 2051.636719 800.941406 C 2067.695312 800.941406 2083.394531 794.207031 2094.75 782.449219 C 2106.105469 770.695312 2112.609375 754.4375 2112.609375 737.8125 Z M 2176.113281 737.8125 " clip-rule="nonzero"/></clipPath><clipPath id="5c4204abdd"><path d="M 0.636719 0.605469 L 125.113281 0.605469 L 125.113281 129.855469 L 0.636719 129.855469 Z M 0.636719 0.605469 " clip-rule="nonzero"/></clipPath><clipPath id="eefaf05cf2"><path d="M 125.113281 0.8125 C 125.113281 34.753906 111.835938 67.941406 88.65625 91.941406 C 65.472656 115.941406 33.417969 129.691406 0.636719 129.691406 L 0.636719 63.941406 C 16.695312 63.941406 32.394531 57.207031 43.75 45.449219 C 55.105469 33.695312 61.609375 17.4375 61.609375 0.8125 Z M 125.113281 0.8125 " clip-rule="nonzero"/></clipPath><clipPath id="198002dc07"><rect x="0" width="126" y="0" height="130"/></clipPath><clipPath id="e405e84001"><path d="M 2008.191406 701.9375 L 2100.753906 701.9375 L 2100.753906 788.421875 L 2008.191406 788.421875 Z M 2008.191406 701.9375 " clip-rule="nonzero"/></clipPath><clipPath id="9d95d41210"><path d="M 2100.753906 701.9375 C 2100.753906 724.714844 2090.90625 746.984375 2073.710938 763.089844 C 2056.515625 779.195312 2032.742188 788.421875 2008.421875 788.421875 L 2008.421875 744.300781 C 2020.335938 744.300781 2031.980469 739.78125 2040.402344 731.894531 C 2048.828125 724.003906 2053.652344 713.09375 2053.652344 701.9375 Z M 2100.753906 701.9375 " clip-rule="nonzero"/></clipPath><clipPath id="8a6d467301"><path d="M 0.292969 0.9375 L 92.753906 0.9375 L 92.753906 87.421875 L 0.292969 87.421875 Z M 0.292969 0.9375 " clip-rule="nonzero"/></clipPath><clipPath id="f82b49bca5"><path d="M 92.753906 0.9375 C 92.753906 23.714844 82.90625 45.984375 65.710938 62.089844 C 48.515625 78.195312 24.742188 87.421875 0.421875 87.421875 L 0.421875 43.300781 C 12.335938 43.300781 23.980469 38.78125 32.402344 30.894531 C 40.828125 23.003906 45.652344 12.09375 45.652344 0.9375 Z M 92.753906 0.9375 " clip-rule="nonzero"/></clipPath><clipPath id="f73682b2de"><rect x="0" width="93" y="0" height="88"/></clipPath><clipPath id="a9570c49e1"><path d="M 2027.523438 728.453125 L 2120.089844 728.453125 L 2120.089844 814.9375 L 2027.523438 814.9375 Z M 2027.523438 728.453125 " clip-rule="nonzero"/></clipPath><clipPath id="e519dd780d"><path d="M 2120.089844 728.453125 C 2120.089844 751.230469 2110.238281 773.5 2093.042969 789.605469 C 2075.851562 805.710938 2052.074219 814.9375 2027.757812 814.9375 L 2027.757812 770.816406 C 2039.667969 770.816406 2051.3125 766.296875 2059.738281 758.40625 C 2068.160156 750.519531 2072.984375 739.609375 2072.984375 728.453125 Z M 2120.089844 728.453125 " clip-rule="nonzero"/></clipPath><clipPath id="9e1f2c2b42"><path d="M 0.71875 0.453125 L 93.089844 0.453125 L 93.089844 86.9375 L 0.71875 86.9375 Z M 0.71875 0.453125 " clip-rule="nonzero"/></clipPath><clipPath id="93b59203df"><path d="M 93.089844 0.453125 C 93.089844 23.230469 83.238281 45.5 66.042969 61.605469 C 48.851562 77.710938 25.074219 86.9375 0.757812 86.9375 L 0.757812 42.816406 C 12.667969 42.816406 24.3125 38.296875 32.738281 30.40625 C 41.160156 22.519531 45.984375 11.609375 45.984375 0.453125 Z M 93.089844 0.453125 " clip-rule="nonzero"/></clipPath><clipPath id="0bc4f20208"><rect x="0" width="94" y="0" height="87"/></clipPath><clipPath id="107854eb44"><path d="M 2047 3.203125 L 2176.605469 3.203125 L 2176.605469 127.683594 L 2047 127.683594 Z M 2047 3.203125 " clip-rule="nonzero"/></clipPath><clipPath id="f94f405575"><path d="M 2047.238281 3.203125 C 2081.179688 3.203125 2114.371094 16.480469 2138.371094 39.660156 C 2162.371094 62.84375 2176.117188 94.898438 2176.117188 127.683594 L 2110.367188 127.683594 C 2110.367188 111.625 2103.632812 95.921875 2091.878906 84.566406 C 2080.121094 73.210938 2063.863281 66.707031 2047.238281 66.707031 Z M 2047.238281 3.203125 " clip-rule="nonzero"/></clipPath><clipPath id="84063b2be9"><path d="M 0.140625 0.203125 L 129.148438 0.203125 L 129.148438 124.683594 L 0.140625 124.683594 Z M 0.140625 0.203125 " clip-rule="nonzero"/></clipPath><clipPath id="7e43321ba8"><path d="M 0.238281 0.203125 C 34.179688 0.203125 67.371094 13.480469 91.371094 36.660156 C 115.371094 59.84375 129.117188 91.898438 129.117188 124.683594 L 63.367188 124.683594 C 63.367188 108.625 56.632812 92.921875 44.878906 81.566406 C 33.121094 70.210938 16.863281 63.707031 0.238281 63.707031 Z M 0.238281 0.203125 " clip-rule="nonzero"/></clipPath><clipPath id="ede4766360"><rect x="0" width="130" y="0" height="125"/></clipPath><clipPath id="178eccc39b"><path d="M 2011.363281 78.558594 L 2097.847656 78.558594 L 2097.847656 171 L 2011.363281 171 Z M 2011.363281 78.558594 " clip-rule="nonzero"/></clipPath><clipPath id="29df554a54"><path d="M 2011.363281 78.558594 C 2034.140625 78.558594 2056.410156 88.410156 2072.515625 105.601562 C 2088.621094 122.796875 2097.847656 146.574219 2097.847656 170.890625 L 2053.726562 170.890625 C 2053.726562 158.980469 2049.207031 147.332031 2041.316406 138.910156 C 2033.429688 130.488281 2022.519531 125.664062 2011.363281 125.664062 Z M 2011.363281 78.558594 " clip-rule="nonzero"/></clipPath><clipPath id="714364d816"><path d="M 0.363281 0.558594 L 86.847656 0.558594 L 86.847656 92.972656 L 0.363281 92.972656 Z M 0.363281 0.558594 " clip-rule="nonzero"/></clipPath><clipPath id="65bfde7203"><path d="M 0.363281 0.558594 C 23.140625 0.558594 45.410156 10.410156 61.515625 27.601562 C 77.621094 44.796875 86.847656 68.574219 86.847656 92.890625 L 42.726562 92.890625 C 42.726562 80.980469 38.207031 69.332031 30.316406 60.910156 C 22.429688 52.488281 11.519531 47.664062 0.363281 47.664062 Z M 0.363281 0.558594 " clip-rule="nonzero"/></clipPath><clipPath id="6d9b2ba851"><rect x="0" width="87" y="0" height="93"/></clipPath><clipPath id="400965e961"><path d="M 2037.878906 59.226562 L 2124.363281 59.226562 L 2124.363281 151.789062 L 2037.878906 151.789062 Z M 2037.878906 59.226562 " clip-rule="nonzero"/></clipPath><clipPath id="dc4b3789a3"><path d="M 2037.878906 59.226562 C 2060.65625 59.226562 2082.925781 69.078125 2099.03125 86.269531 C 2115.136719 103.464844 2124.363281 127.242188 2124.363281 151.558594 L 2080.242188 151.558594 C 2080.242188 139.648438 2075.722656 128 2067.832031 119.578125 C 2059.945312 111.15625 2049.035156 106.332031 2037.878906 106.332031 Z M 2037.878906 59.226562 " clip-rule="nonzero"/></clipPath><clipPath id="bd92ca2718"><path d="M 0.878906 0.226562 L 87.363281 0.226562 L 87.363281 92.789062 L 0.878906 92.789062 Z M 0.878906 0.226562 " clip-rule="nonzero"/></clipPath><clipPath id="b9c6515e5a"><path d="M 0.878906 0.226562 C 23.65625 0.226562 45.925781 10.078125 62.03125 27.269531 C 78.136719 44.464844 87.363281 68.242188 87.363281 92.558594 L 43.242188 92.558594 C 43.242188 80.648438 38.722656 69 30.832031 60.578125 C 22.945312 52.15625 12.035156 47.332031 0.878906 47.332031 Z M 0.878906 0.226562 " clip-rule="nonzero"/></clipPath><clipPath id="84f3b14bd2"><rect x="0" width="88" y="0" height="93"/></clipPath><clipPath id="f641175eef"><path d="M 0.980469 0 L 600 0 L 600 871.5 L 0.980469 871.5 Z M 0.980469 0 " clip-rule="nonzero"/></clipPath><clipPath id="7a76074c00"><path d="M 0.980469 0 L 643 0 L 643 871.5 L 0.980469 871.5 Z M 0.980469 0 " clip-rule="nonzero"/></clipPath><clipPath id="960a4c1b05"><path d="M 0.980469 0 L 687 0 L 687 871.5 L 0.980469 871.5 Z M 0.980469 0 " clip-rule="nonzero"/></clipPath><clipPath id="06720db1f6"><path d="M 180 0 L 910 0 L 910 871.5 L 180 871.5 Z M 180 0 " clip-rule="nonzero"/></clipPath><clipPath id="1001d90c24"><path d="M 149 0 L 891 0 L 891 871.5 L 149 871.5 Z M 149 0 " clip-rule="nonzero"/></clipPath><clipPath id="4e9c87f1f5"><path d="M 0.980469 121 L 1069 121 L 1069 871.5 L 0.980469 871.5 Z M 0.980469 121 " clip-rule="nonzero"/></clipPath><clipPath id="1f3b725221"><path d="M 0.980469 101 L 1069 101 L 1069 871.5 L 0.980469 871.5 Z M 0.980469 101 " clip-rule="nonzero"/></clipPath><clipPath id="c6769c69c2"><path d="M 471 0 L 1408 0 L 1408 871.5 L 471 871.5 Z M 471 0 " clip-rule="nonzero"/></clipPath><clipPath id="fde2eb9f27"><path d="M 516 0 L 1440 0 L 1440 871.5 L 516 871.5 Z M 516 0 " clip-rule="nonzero"/></clipPath><clipPath id="1d02430f4c"><path d="M 549 0 L 1487 0 L 1487 871.5 L 549 871.5 Z M 549 0 " clip-rule="nonzero"/></clipPath><clipPath id="77aeea9970"><path d="M 470 0 L 1408 0 L 1408 871.5 L 470 871.5 Z M 470 0 " clip-rule="nonzero"/></clipPath><clipPath id="0de0e0810b"><path d="M 517 0 L 1453 0 L 1453 871.5 L 517 871.5 Z M 517 0 " clip-rule="nonzero"/></clipPath><clipPath id="7db3e4523f"><path d="M 546 0 L 1488 0 L 1488 871.5 L 546 871.5 Z M 546 0 " clip-rule="nonzero"/></clipPath><clipPath id="71522ce7e3"><path d="M 111.917969 796.386719 L 119.757812 796.386719 L 119.757812 804.445312 L 111.917969 804.445312 Z M 111.917969 796.386719 " clip-rule="nonzero"/></clipPath><clipPath id="37c46fbb5c"><path d="M 119.738281 799.089844 C 118.683594 803.472656 118.117188 803.796875 117.546875 804.042969 C 116.976562 804.285156 116.328125 804.527344 115.679688 804.367188 C 114.703125 804.203125 113 803.390625 112.429688 802.417969 C 111.863281 801.441406 111.863281 799.574219 112.1875 798.683594 C 112.429688 798.03125 112.753906 797.464844 113.40625 797.140625 C 114.21875 796.652344 116.167969 796.246094 117.140625 796.488281 C 117.789062 796.570312 118.765625 797.464844 118.765625 797.464844 " clip-rule="nonzero"/></clipPath><clipPath id="5cf08f1e3f"><path d="M 0.917969 0.386719 L 8.757812 0.386719 L 8.757812 8.445312 L 0.917969 8.445312 Z M 0.917969 0.386719 " clip-rule="nonzero"/></clipPath><clipPath id="d63d5bd665"><path d="M 8.738281 3.089844 C 7.683594 7.472656 7.117188 7.796875 6.546875 8.042969 C 5.976562 8.285156 5.328125 8.527344 4.679688 8.367188 C 3.703125 8.203125 2 7.390625 1.429688 6.417969 C 0.863281 5.441406 0.863281 3.574219 1.1875 2.683594 C 1.429688 2.03125 1.753906 1.464844 2.40625 1.140625 C 3.21875 0.652344 5.167969 0.246094 6.140625 0.488281 C 6.789062 0.570312 7.765625 1.464844 7.765625 1.464844 " clip-rule="nonzero"/></clipPath><clipPath id="581bf4d08a"><rect x="0" width="9" y="0" height="9"/></clipPath><clipPath id="cdd66280e6"><path d="M 1161.035156 760.433594 L 1289 760.433594 L 1289 867.5 L 1161.035156 867.5 Z M 1161.035156 760.433594 " clip-rule="nonzero"/></clipPath><clipPath id="6281c7e736"><path d="M 1224.859375 760.433594 L 1288.6875 867.5 L 1161.035156 867.5 Z M 1224.859375 760.433594 " clip-rule="nonzero"/></clipPath><clipPath id="ba76d2e3ec"><path d="M 0.0351562 0.433594 L 127.914062 0.433594 L 127.914062 107.5 L 0.0351562 107.5 Z M 0.0351562 0.433594 " clip-rule="nonzero"/></clipPath><clipPath id="52b4965f08"><path d="M 63.859375 0.433594 L 127.6875 107.5 L 0.0351562 107.5 Z M 63.859375 0.433594 " clip-rule="nonzero"/></clipPath><clipPath id="6f49d44e1d"><rect x="0" width="128" y="0" height="108"/></clipPath><clipPath id="c83d0b2d32"><path d="M 670.003906 760.4375 L 795.886719 760.4375 L 795.886719 867.503906 L 670.003906 867.503906 Z M 670.003906 760.4375 " clip-rule="nonzero"/></clipPath><clipPath id="315e62fc53"><path d="M 732.773438 760.4375 L 795.542969 867.503906 L 670.003906 867.503906 Z M 732.773438 760.4375 " clip-rule="nonzero"/></clipPath><clipPath id="9128dff6d3"><path d="M 0.00390625 0.4375 L 125.65625 0.4375 L 125.65625 107.503906 L 0.00390625 107.503906 Z M 0.00390625 0.4375 " clip-rule="nonzero"/></clipPath><clipPath id="5f50909d2a"><path d="M 62.773438 0.4375 L 125.542969 107.503906 L 0.00390625 107.503906 Z M 62.773438 0.4375 " clip-rule="nonzero"/></clipPath><clipPath id="0cdf39fecb"><rect x="0" width="126" y="0" height="108"/></clipPath><clipPath id="182b3da78e"><path d="M 1.691406 724.492188 L 124.796875 724.492188 L 124.796875 867.796875 L 1.691406 867.796875 Z M 1.691406 724.492188 " clip-rule="nonzero"/></clipPath><clipPath id="06772d6abb"><path d="M 63.242188 724.492188 L 124.796875 867.671875 L 1.691406 867.671875 Z M 63.242188 724.492188 " clip-rule="nonzero"/></clipPath><clipPath id="1d23456478"><path d="M 0.691406 0.492188 L 123.796875 0.492188 L 123.796875 143.796875 L 0.691406 143.796875 Z M 0.691406 0.492188 " clip-rule="nonzero"/></clipPath><clipPath id="514a0a984f"><path d="M 62.242188 0.492188 L 123.796875 143.671875 L 0.691406 143.671875 Z M 62.242188 0.492188 " clip-rule="nonzero"/></clipPath><clipPath id="f328424bb1"><rect x="0" width="124" y="0" height="144"/></clipPath><clipPath id="6999397ed7"><path d="M 352.78125 1.574219 L 470.59375 1.574219 L 470.59375 145.160156 L 352.78125 145.160156 Z M 352.78125 1.574219 " clip-rule="nonzero"/></clipPath><clipPath id="3b46ac2c13"><path d="M 411.6875 145.160156 L 352.78125 1.984375 L 470.59375 1.984375 Z M 411.6875 145.160156 " clip-rule="nonzero"/></clipPath><clipPath id="cca5c8f157"><path d="M 0.78125 1 L 118.59375 1 L 118.59375 144.160156 L 0.78125 144.160156 Z M 0.78125 1 " clip-rule="nonzero"/></clipPath><clipPath id="f89e30db8c"><path d="M 59.6875 144.160156 L 0.78125 0.984375 L 118.59375 0.984375 Z M 59.6875 144.160156 " clip-rule="nonzero"/></clipPath><clipPath id="55091e18e8"><rect x="0" width="119" y="0" height="145"/></clipPath><clipPath id="ea8a972459"><path d="M 668.421875 2.417969 L 792.691406 2.417969 L 792.691406 112.496094 L 668.421875 112.496094 Z M 668.421875 2.417969 " clip-rule="nonzero"/></clipPath><clipPath id="f7dbaed1f4"><path d="M 730.632812 112.496094 L 668.574219 2.417969 L 792.691406 2.417969 Z M 730.632812 112.496094 " clip-rule="nonzero"/></clipPath><clipPath id="1c08f4f7e9"><path d="M 0.566406 0.417969 L 124.691406 0.417969 L 124.691406 110.496094 L 0.566406 110.496094 Z M 0.566406 0.417969 " clip-rule="nonzero"/></clipPath><clipPath id="733b1c5b4e"><path d="M 62.632812 110.496094 L 0.574219 0.417969 L 124.691406 0.417969 Z M 62.632812 110.496094 " clip-rule="nonzero"/></clipPath><clipPath id="812b3631a1"><rect x="0" width="125" y="0" height="111"/></clipPath><clipPath id="4de0ce5f96"><path d="M 1162.667969 1.742188 L 1286.9375 1.742188 L 1286.9375 111.824219 L 1162.667969 111.824219 Z M 1162.667969 1.742188 " clip-rule="nonzero"/></clipPath><clipPath id="7353c0b1ec"><path d="M 1224.878906 111.824219 L 1162.820312 1.742188 L 1286.9375 1.742188 Z M 1224.878906 111.824219 " clip-rule="nonzero"/></clipPath><clipPath id="e49d13c7c4"><path d="M 0.78125 0.742188 L 124.9375 0.742188 L 124.9375 110.824219 L 0.78125 110.824219 Z M 0.78125 0.742188 " clip-rule="nonzero"/></clipPath><clipPath id="174ce46d95"><path d="M 62.878906 110.824219 L 0.820312 0.742188 L 124.9375 0.742188 Z M 62.878906 110.824219 " clip-rule="nonzero"/></clipPath><clipPath id="07f49594c4"><rect x="0" width="125" y="0" height="111"/></clipPath><clipPath id="53db082d5d"><path d="M 623 665 L 685 665 L 685 745 L 623 745 Z M 623 665 " clip-rule="nonzero"/></clipPath><clipPath id="168bcc5443"><path d="M 667.902344 647.34375 L 700.507812 726.082031 L 655.910156 744.550781 L 623.304688 665.808594 Z M 667.902344 647.34375 " clip-rule="nonzero"/></clipPath><clipPath id="bb36ecca31"><path d="M 684.175781 686.640625 L 655.851562 744.40625 L 623.304688 665.808594 Z M 684.175781 686.640625 " clip-rule="nonzero"/></clipPath><clipPath id="ea4f46978e"><path d="M 0.246094 0.667969 L 61.394531 0.667969 L 61.394531 79.558594 L 0.246094 79.558594 Z M 0.246094 0.667969 " clip-rule="nonzero"/></clipPath><clipPath id="719c9f2966"><path d="M 44.902344 -17.65625 L 77.507812 61.082031 L 32.910156 79.550781 L 0.304688 0.808594 Z M 44.902344 -17.65625 " clip-rule="nonzero"/></clipPath><clipPath id="31127b5b1f"><path d="M 61.175781 21.640625 L 32.851562 79.40625 L 0.304688 0.808594 Z M 61.175781 21.640625 " clip-rule="nonzero"/></clipPath><clipPath id="71c0077896"><rect x="0" width="62" y="0" height="80"/></clipPath></defs><g clip-path="url(#e4b0ffbceb)"><path stroke-linecap="butt" transform="matrix(0.368912, -0.652256, 0.652256, 0.368912, 669.944211, 867.321939)" fill="none" stroke-linejoin="miter" d="M -0.0021769 0.499993 L 1327.492178 0.496817 " stroke="#000000" stroke-width="1" stroke-opacity="1" stroke-miterlimit="4"/></g><path stroke-linecap="butt" transform="matrix(0.749356, -0.000000000000001301, 0.000000000000001301, 0.749356, 1159.544253, 1.613619)" fill="none" stroke-linejoin="miter" d="M -0.00171442 0.499979 L 169.430315 0.499979 " stroke="#000000" stroke-width="1" stroke-opacity="1" stroke-miterlimit="4"/><g clip-path="url(#40e3acc38d)"><path stroke-linecap="butt" transform="matrix(0.369912, -0.651689, 0.651689, 0.369912, 795.082858, 867.623839)" fill="none" stroke-linejoin="miter" d="M 0.00119122 0.501554 L 1328.579551 0.501811 " stroke="#000000" stroke-width="1" stroke-opacity="1" stroke-miterlimit="4"/></g><g clip-path="url(#70f14d80f2)"><path stroke-linecap="butt" transform="matrix(-0.373042, -0.649902, 0.649902, -0.373042, 1288.353904, 867.574778)" fill="none" stroke-linejoin="miter" d="M 0.00122696 0.501984 L 1331.420804 0.502363 " stroke="#000000" stroke-width="1" stroke-opacity="1" stroke-miterlimit="4"/></g><g clip-path="url(#eb70550cd9)"><path stroke-linecap="butt" transform="matrix(-0.370453, -0.651382, 0.651382, -0.370453, 1160.700012, 868.265528)" fill="none" stroke-linejoin="miter" d="M -0.00308969 0.500762 L 1329.329679 0.498109 " stroke="#000000" stroke-width="1" stroke-opacity="1" stroke-miterlimit="4"/></g><path stroke-linecap="butt" transform="matrix(-0.749356, -0.00000000130787, 0.00000000130787, -0.749356, 1289.087697, 868.091725)" fill="none" stroke-linejoin="miter" d="M 0.0023486 0.497728 L 172.270148 0.497727 " stroke="#000000" stroke-width="1" stroke-opacity="1" stroke-miterlimit="4"/><g clip-path="url(#f2ab624f7b)"><g clip-path="url(#732c944093)"><g transform="matrix(1, 0, 0, 1, 1384, 3)"><g clip-path="url(#4c7b3ad27d)"><g clip-path="url(#422e86ef22)"><g clip-path="url(#78dad6744f)"><path fill="#000000" d="M 0.101562 0.238281 L 123.011719 0.238281 L 123.011719 864.917969 L 0.101562 864.917969 Z M 0.101562 0.238281 " fill-opacity="1" fill-rule="nonzero"/></g></g></g></g></g></g><g clip-path="url(#d44922fd52)"><g clip-path="url(#a772f4d382)"><g transform="matrix(1, 0, 0, 1, 1626, 125)"><g clip-path="url(#9a0af8aee9)"><g clip-path="url(#6924508762)"><g clip-path="url(#bf43716bb1)"><path fill="#000000" d="M 0.1875 0.332031 L 123.097656 0.332031 L 123.097656 617.757812 L 0.1875 617.757812 Z M 0.1875 0.332031 " fill-opacity="1" fill-rule="nonzero"/></g></g></g></g></g></g><g clip-path="url(#056662ad33)"><g transform="matrix(1, 0, 0, 1, 2053, 125)"><g clip-path="url(#6475f8baca)"><g clip-path="url(#b56019f242)"><path fill="#000000" d="M 0.210938 0.332031 L 123.121094 0.332031 L 123.121094 617.757812 L 0.210938 617.757812 Z M 0.210938 0.332031 " fill-opacity="1" fill-rule="nonzero"/></g></g></g></g><g clip-path="url(#d2f79e6bd3)"><g clip-path="url(#c350a4543b)"><g transform="matrix(1, 0, 0, 1, 2286, 3)"><g clip-path="url(#2b36c3a367)"><g clip-path="url(#a6390cd2aa)"><g clip-path="url(#649d429594)"><path fill="#000000" d="M 0.152344 0.238281 L 123.03125 0.238281 L 123.03125 864.710938 L 0.152344 864.710938 Z M 0.152344 0.238281 " fill-opacity="1" fill-rule="nonzero"/></g></g></g></g></g></g><g clip-path="url(#eec001fbd2)"><g clip-path="url(#f4cf26bf7d)"><g transform="matrix(1, 0, 0, 1, 2738, 3)"><g clip-path="url(#540d003a4d)"><g clip-path="url(#5015619b58)"><g clip-path="url(#66fe3ee96f)"><path fill="#000000" d="M 0.917969 0.238281 L 123.828125 0.238281 L 123.828125 865.878906 L 0.917969 865.878906 Z M 0.917969 0.238281 " fill-opacity="1" fill-rule="nonzero"/></g></g></g></g></g></g><g clip-path="url(#c00553aa5f)"><g transform="matrix(1, 0, 0, 1, 1749, 743)"><g clip-path="url(#6cec477057)"><g clip-path="url(#b167d85799)"><path fill="#000000" d="M 0.0976562 123.6875 L 0.0976562 0.777344 L 304.007812 0.777344 L 304.007812 123.6875 Z M 0.0976562 123.6875 " fill-opacity="1" fill-rule="nonzero"/></g></g></g></g><g clip-path="url(#88f6b2cce8)"><g clip-path="url(#de2a8e5d03)"><g transform="matrix(1, 0, 0, 1, 2303, 0)"><g clip-path="url(#f317764879)"><g clip-path="url(#efd716ed51)"><g clip-path="url(#534714a598)"><path fill="#000000" d="M 0.332031 58.019531 L 108.683594 0 L 543.832031 812.644531 L 435.476562 870.664062 Z M 0.332031 58.019531 " fill-opacity="1" fill-rule="nonzero"/></g></g></g></g></g></g><g clip-path="url(#4025884c03)"><g transform="matrix(1, 0, 0, 1, 1749, 2)"><g clip-path="url(#c45306cb13)"><g clip-path="url(#f2b14a97b6)"><path fill="#000000" d="M 0.0976562 123.328125 L 0.0976562 0.421875 L 304.007812 0.421875 L 304.007812 123.328125 Z M 0.0976562 123.328125 " fill-opacity="1" fill-rule="nonzero"/></g></g></g></g><g clip-path="url(#e464452d38)"><path stroke-linecap="butt" transform="matrix(0.281364, -0.694527, 0.694527, 0.281364, 0.980119, 868.056236)" fill="none" stroke-linejoin="miter" d="M 0.00235714 0.500114 L 1247.607934 0.499806 " stroke="#000000" stroke-width="1" stroke-opacity="1" stroke-miterlimit="4"/></g><g clip-path="url(#2da4a1a2a6)"><path stroke-linecap="butt" transform="matrix(0.281203, -0.694593, 0.694593, 0.281203, 124.350381, 867.574778)" fill="none" stroke-linejoin="miter" d="M 0.00143399 0.501639 L 1029.987918 0.498546 " stroke="#000000" stroke-width="1" stroke-opacity="1" stroke-miterlimit="4"/></g><path stroke-linecap="butt" transform="matrix(-0.282433, -0.694093, 0.694093, -0.282433, 655.352854, 745.603806)" fill="none" stroke-linejoin="miter" d="M 0.00238451 0.499988 L 854.597257 0.498589 " stroke="#000000" stroke-width="1" stroke-opacity="1" stroke-miterlimit="4"/><path stroke-linecap="butt" transform="matrix(-0.282721, -0.693976, 0.693976, -0.282721, 722.884495, 621.757455)" fill="none" stroke-linejoin="miter" d="M -0.000840045 0.498197 L 893.520103 0.497581 " stroke="#000000" stroke-width="1" stroke-opacity="1" stroke-miterlimit="4"/><path stroke-linecap="butt" transform="matrix(0.358927, -0.657803, 0.657803, 0.358927, 654.928827, 745.499664)" fill="none" stroke-linejoin="miter" d="M -0.000602935 0.500457 L 189.851555 0.49682 " stroke="#000000" stroke-width="1" stroke-opacity="1" stroke-miterlimit="4"/><path stroke-linecap="butt" transform="matrix(-0.749355, -0.000452563, 0.000452563, -0.749355, 604.736867, 621.171615)" fill="none" stroke-linejoin="miter" d="M -0.0015849 0.500084 L 507.528303 0.501124 " stroke="#000000" stroke-width="1" stroke-opacity="1" stroke-miterlimit="4"/><path stroke-linecap="butt" transform="matrix(-0.749356, 0, 0, -0.749356, 563.915714, 519.343082)" fill="none" stroke-linejoin="miter" d="M 0.00220376 0.499539 L 397.593804 0.499539 " stroke="#000000" stroke-width="1" stroke-opacity="1" stroke-miterlimit="4"/><g clip-path="url(#7a0c487e79)"><path stroke-linecap="butt" transform="matrix(0.749356, -0.000000000000002044, 0.000000000000002044, 0.749356, 1.002714, 867.424978)" fill="none" stroke-linejoin="miter" d="M 0.00159117 0.501501 L 165.789865 0.501501 " stroke="#000000" stroke-width="1" stroke-opacity="1" stroke-miterlimit="4"/></g><path stroke-linecap="butt" transform="matrix(0.749354, -0.00128692, 0.00128692, 0.749354, 352.359626, 1.907561)" fill="none" stroke-linejoin="miter" d="M -0.00119088 0.49868 L 157.785659 0.498592 " stroke="#000000" stroke-width="1" stroke-opacity="1" stroke-miterlimit="4"/><path stroke-linecap="butt" transform="matrix(0.749355, -0.000983951, 0.000983951, 0.749355, 668.256878, 2.048594)" fill="none" stroke-linejoin="miter" d="M 0.000593484 0.498137 L 165.06442 0.501151 " stroke="#000000" stroke-width="1" stroke-opacity="1" stroke-miterlimit="4"/><g clip-path="url(#e14735e24d)"><path stroke-linecap="butt" transform="matrix(0.749353, -0.0019365, 0.0019365, 0.749353, 670.325962, 867.57883)" fill="none" stroke-linejoin="miter" d="M 0.00159516 0.499495 L 167.740023 0.500304 " stroke="#000000" stroke-width="1" stroke-opacity="1" stroke-miterlimit="4"/></g><g clip-path="url(#b3a7151e9f)"><g clip-path="url(#e9b17537ba)"><g transform="matrix(1, 0, 0, 1, 1626, 2)"><g clip-path="url(#e3a882ebdc)"><g clip-path="url(#d4fc96659d)"><g clip-path="url(#3ef9e72649)"><path fill="#000000" d="M 0.746094 0.6875 L 125.226562 0.6875 L 125.226562 129.542969 L 0.746094 129.542969 Z M 0.746094 0.6875 " fill-opacity="1" fill-rule="nonzero"/></g></g></g></g></g></g><g clip-path="url(#19bd0015e1)"><g clip-path="url(#8bb7f5504d)"><g transform="matrix(1, 0, 0, 1, 1702, 80)"><g clip-path="url(#52c078e4e1)"><g clip-path="url(#e61f4804ff)"><g clip-path="url(#268c9c58ec)"><path fill="#000000" d="M 0.101562 0.957031 L 92.328125 0.957031 L 92.328125 87.441406 L 0.101562 87.441406 Z M 0.101562 0.957031 " fill-opacity="1" fill-rule="nonzero"/></g></g></g></g></g></g><g clip-path="url(#590ebb2c9b)"><g clip-path="url(#b9e68c90b3)"><g transform="matrix(1, 0, 0, 1, 1682, 54)"><g clip-path="url(#9867a9eea2)"><g clip-path="url(#5c8a2e11e7)"><g clip-path="url(#d697443741)"><path fill="#000000" d="M 0.769531 0.441406 L 92.996094 0.441406 L 92.996094 86.925781 L 0.769531 86.925781 Z M 0.769531 0.441406 " fill-opacity="1" fill-rule="nonzero"/></g></g></g></g></g></g><g clip-path="url(#3597cca5bd)"><g clip-path="url(#1a5d74cb8f)"><g transform="matrix(1, 0, 0, 1, 1626, 742)"><g clip-path="url(#c51a95bb6b)"><g clip-path="url(#a52083f796)"><g clip-path="url(#6036cd620f)"><path fill="#000000" d="M 0.742188 124.6875 L 0.742188 0.207031 L 129.601562 0.207031 L 129.601562 124.6875 Z M 0.742188 124.6875 " fill-opacity="1" fill-rule="nonzero"/></g></g></g></g></g></g><g clip-path="url(#6d3d7fca98)"><g clip-path="url(#4ecea878f4)"><g transform="matrix(1, 0, 0, 1, 1705, 698)"><g clip-path="url(#8f159a9516)"><g clip-path="url(#769859edaa)"><g clip-path="url(#b829828be8)"><path fill="#000000" d="M 0.0117188 93.328125 L 0.0117188 1.105469 L 86.492188 1.105469 L 86.492188 93.328125 Z M 0.0117188 93.328125 " fill-opacity="1" fill-rule="nonzero"/></g></g></g></g></g></g><g clip-path="url(#e42e452065)"><g clip-path="url(#5267056cb0)"><g transform="matrix(1, 0, 0, 1, 1678, 718)"><g clip-path="url(#a800da72ee)"><g clip-path="url(#a6f7dc07df)"><g clip-path="url(#4306f40d57)"><path fill="#000000" d="M 0.496094 92.660156 L 0.496094 0.4375 L 86.976562 0.4375 L 86.976562 92.660156 Z M 0.496094 92.660156 " fill-opacity="1" fill-rule="nonzero"/></g></g></g></g></g></g><g clip-path="url(#eab5a072c2)"><g clip-path="url(#d6d96ac893)"><g transform="matrix(1, 0, 0, 1, 2051, 737)"><g clip-path="url(#198002dc07)"><g clip-path="url(#5c4204abdd)"><g clip-path="url(#eefaf05cf2)"><path fill="#000000" d="M 125.113281 129.691406 L 0.636719 129.691406 L 0.636719 0.832031 L 125.113281 0.832031 Z M 125.113281 129.691406 " fill-opacity="1" fill-rule="nonzero"/></g></g></g></g></g></g><g clip-path="url(#e405e84001)"><g clip-path="url(#9d95d41210)"><g transform="matrix(1, 0, 0, 1, 2008, 701)"><g clip-path="url(#f73682b2de)"><g clip-path="url(#8a6d467301)"><g clip-path="url(#f82b49bca5)"><path fill="#000000" d="M 92.753906 87.421875 L 0.53125 87.421875 L 0.53125 0.9375 L 92.753906 0.9375 Z M 92.753906 87.421875 " fill-opacity="1" fill-rule="nonzero"/></g></g></g></g></g></g><g clip-path="url(#a9570c49e1)"><g clip-path="url(#e519dd780d)"><g transform="matrix(1, 0, 0, 1, 2027, 728)"><g clip-path="url(#0bc4f20208)"><g clip-path="url(#9e1f2c2b42)"><g clip-path="url(#93b59203df)"><path fill="#000000" d="M 93.089844 86.9375 L 0.863281 86.9375 L 0.863281 0.453125 L 93.089844 0.453125 Z M 93.089844 86.9375 " fill-opacity="1" fill-rule="nonzero"/></g></g></g></g></g></g><g clip-path="url(#107854eb44)"><g clip-path="url(#f94f405575)"><g transform="matrix(1, 0, 0, 1, 2047, 3)"><g clip-path="url(#ede4766360)"><g clip-path="url(#84063b2be9)"><g clip-path="url(#7e43321ba8)"><path fill="#000000" d="M 129.117188 0.203125 L 129.117188 124.683594 L 0.261719 124.683594 L 0.261719 0.203125 Z M 129.117188 0.203125 " fill-opacity="1" fill-rule="nonzero"/></g></g></g></g></g></g><g clip-path="url(#178eccc39b)"><g clip-path="url(#29df554a54)"><g transform="matrix(1, 0, 0, 1, 2011, 78)"><g clip-path="url(#6d9b2ba851)"><g clip-path="url(#714364d816)"><g clip-path="url(#65bfde7203)"><path fill="#000000" d="M 86.847656 0.558594 L 86.847656 92.785156 L 0.363281 92.785156 L 0.363281 0.558594 Z M 86.847656 0.558594 " fill-opacity="1" fill-rule="nonzero"/></g></g></g></g></g></g><g clip-path="url(#400965e961)"><g clip-path="url(#dc4b3789a3)"><g transform="matrix(1, 0, 0, 1, 2037, 59)"><g clip-path="url(#84f3b14bd2)"><g clip-path="url(#bd92ca2718)"><g clip-path="url(#b9c6515e5a)"><path fill="#000000" d="M 87.363281 0.226562 L 87.363281 92.453125 L 0.878906 92.453125 L 0.878906 0.226562 Z M 87.363281 0.226562 " fill-opacity="1" fill-rule="nonzero"/></g></g></g></g></g></g><g clip-path="url(#f641175eef)"><path stroke-linecap="butt" transform="matrix(0.280981, -0.694682, 0.694682, 0.280981, 8.213555, 852.478367)" fill="none" stroke-linejoin="miter" d="M -0.00252788 26.999257 L 1224.320684 26.999182 " stroke="#000000" stroke-width="54" stroke-opacity="1" stroke-miterlimit="4"/></g><g clip-path="url(#7a76074c00)"><path stroke-linecap="butt" transform="matrix(0.280981, -0.694682, 0.694682, 0.280981, 50.876765, 852.961648)" fill="none" stroke-linejoin="miter" d="M 0.00137729 26.998906 L 1224.319757 27.000785 " stroke="#000000" stroke-width="54" stroke-opacity="1" stroke-miterlimit="4"/></g><g clip-path="url(#960a4c1b05)"><path stroke-linecap="butt" transform="matrix(0.286408, -0.692463, 0.692463, 0.286408, 86.991975, 851.834689)" fill="none" stroke-linejoin="miter" d="M 0.00109786 26.998152 L 1227.775295 26.998992 " stroke="#000000" stroke-width="54" stroke-opacity="1" stroke-miterlimit="4"/></g><path stroke-linecap="butt" transform="matrix(-0.282721, -0.693976, 0.693976, -0.282721, 685.692788, 637.277605)" fill="none" stroke-linejoin="miter" d="M -0.000242292 26.999244 L 893.520701 26.998628 " stroke="#000000" stroke-width="54" stroke-opacity="1" stroke-miterlimit="4"/><g clip-path="url(#06720db1f6)"><path stroke-linecap="butt" transform="matrix(-0.283621, -0.693609, 0.693609, -0.283621, 661.594974, 679.910544)" fill="none" stroke-linejoin="miter" d="M -0.00231227 27.001666 L 954.24597 27.002247 " stroke="#000000" stroke-width="54" stroke-opacity="1" stroke-miterlimit="4"/></g><g clip-path="url(#1001d90c24)"><path stroke-linecap="butt" transform="matrix(-0.282566, -0.694039, 0.694039, -0.282566, 643.061839, 714.000446)" fill="none" stroke-linejoin="miter" d="M 0.00014857 26.999893 L 1003.24113 27.00166 " stroke="#000000" stroke-width="54" stroke-opacity="1" stroke-miterlimit="4"/></g><g clip-path="url(#4e9c87f1f5)"><path stroke-linecap="butt" transform="matrix(-0.749355, -0.000452563, 0.000452563, -0.749355, 610.865781, 620.429093)" fill="none" stroke-linejoin="miter" d="M -0.00054209 53.998736 L 507.529346 53.999776 " stroke="#000000" stroke-width="108" stroke-opacity="1" stroke-miterlimit="4"/></g><g clip-path="url(#1f3b725221)"><path stroke-linecap="butt" transform="matrix(-0.749355, -0.000452563, 0.000452563, -0.749355, 610.890312, 600.266631)" fill="none" stroke-linejoin="miter" d="M 0.000918328 54.000871 L 507.525594 54.001914 " stroke="#000000" stroke-width="108" stroke-opacity="1" stroke-miterlimit="4"/></g><g clip-path="url(#c6769c69c2)"><path stroke-linecap="butt" transform="matrix(0.369067, -0.652168, 0.652168, 0.369067, 682.842383, 845.130246)" fill="none" stroke-linejoin="miter" d="M 0.000407195 26.997162 L 1294.686199 27.000121 " stroke="#000000" stroke-width="54" stroke-opacity="1" stroke-miterlimit="4"/></g><g clip-path="url(#fde2eb9f27)"><path stroke-linecap="butt" transform="matrix(0.364564, -0.654696, 0.654696, 0.364564, 727.898607, 838.899516)" fill="none" stroke-linejoin="miter" d="M -0.000137033 26.998261 L 1275.108945 26.999914 " stroke="#000000" stroke-width="54" stroke-opacity="1" stroke-miterlimit="4"/></g><g clip-path="url(#1d02430f4c)"><path stroke-linecap="butt" transform="matrix(0.369531, -0.651906, 0.651906, 0.369531, 760.555357, 847.555401)" fill="none" stroke-linejoin="miter" d="M 0.00134946 26.998379 L 1297.022241 26.998458 " stroke="#000000" stroke-width="54" stroke-opacity="1" stroke-miterlimit="4"/></g><g clip-path="url(#77aeea9970)"><path stroke-linecap="butt" transform="matrix(-0.370262, -0.651491, 0.651491, -0.370262, 1160.841682, 867.794093)" fill="none" stroke-linejoin="miter" d="M -0.000929153 27.002031 L 1293.949738 27.000602 " stroke="#000000" stroke-width="54" stroke-opacity="1" stroke-miterlimit="4"/></g><g clip-path="url(#0de0e0810b)"><path stroke-linecap="butt" transform="matrix(-0.370187, -0.651533, 0.651533, -0.370187, 1205.648352, 866.65337)" fill="none" stroke-linejoin="miter" d="M -0.00116367 26.99709 L 1287.806108 27.001623 " stroke="#000000" stroke-width="54" stroke-opacity="1" stroke-miterlimit="4"/></g><g clip-path="url(#7db3e4523f)"><path stroke-linecap="butt" transform="matrix(-0.372758, -0.650066, 0.650066, -0.372758, 1240.648655, 865.559886)" fill="none" stroke-linejoin="miter" d="M 0.0000290957 26.998155 L 1295.99174 27.000016 " stroke="#000000" stroke-width="54" stroke-opacity="1" stroke-miterlimit="4"/></g><g clip-path="url(#71522ce7e3)"><g clip-path="url(#37c46fbb5c)"><g transform="matrix(1, 0, 0, 1, 111, 796)"><g clip-path="url(#581bf4d08a)"><g clip-path="url(#5cf08f1e3f)"><g clip-path="url(#d63d5bd665)"><rect x="-740.97" width="4123.44" fill="#000000" height="1256.039968" y="-987.894995" fill-opacity="1"/></g></g></g></g></g></g><g clip-path="url(#cdd66280e6)"><g clip-path="url(#6281c7e736)"><g transform="matrix(1, 0, 0, 1, 1161, 760)"><g clip-path="url(#6f49d44e1d)"><g clip-path="url(#ba76d2e3ec)"><g clip-path="url(#52b4965f08)"><path fill="#000000" d="M 0.0351562 0.433594 L 127.59375 0.433594 L 127.59375 107.5 L 0.0351562 107.5 Z M 0.0351562 0.433594 " fill-opacity="1" fill-rule="nonzero"/></g></g></g></g></g></g><g clip-path="url(#c83d0b2d32)"><g clip-path="url(#315e62fc53)"><g transform="matrix(1, 0, 0, 1, 670, 760)"><g clip-path="url(#0cdf39fecb)"><g clip-path="url(#9128dff6d3)"><g clip-path="url(#5f50909d2a)"><path fill="#000000" d="M 0.00390625 0.4375 L 125.46875 0.4375 L 125.46875 107.503906 L 0.00390625 107.503906 Z M 0.00390625 0.4375 " fill-opacity="1" fill-rule="nonzero"/></g></g></g></g></g></g><g clip-path="url(#182b3da78e)"><g clip-path="url(#06772d6abb)"><g transform="matrix(1, 0, 0, 1, 1, 724)"><g clip-path="url(#f328424bb1)"><g clip-path="url(#1d23456478)"><g clip-path="url(#514a0a984f)"><path fill="#000000" d="M 0.691406 0.492188 L 123.796875 0.492188 L 123.796875 143.796875 L 0.691406 143.796875 Z M 0.691406 0.492188 " fill-opacity="1" fill-rule="nonzero"/></g></g></g></g></g></g><g clip-path="url(#6999397ed7)"><g clip-path="url(#3b46ac2c13)"><g transform="matrix(1, 0, 0, 1, 352, 1)"><g clip-path="url(#55091e18e8)"><g clip-path="url(#cca5c8f157)"><g clip-path="url(#f89e30db8c)"><path fill="#000000" d="M 118.59375 144.160156 L 0.78125 144.160156 L 0.78125 1.035156 L 118.59375 1.035156 Z M 118.59375 144.160156 " fill-opacity="1" fill-rule="nonzero"/></g></g></g></g></g></g><g clip-path="url(#ea8a972459)"><g clip-path="url(#f7dbaed1f4)"><g transform="matrix(1, 0, 0, 1, 668, 2)"><g clip-path="url(#812b3631a1)"><g clip-path="url(#1c08f4f7e9)"><g clip-path="url(#733b1c5b4e)"><path fill="#000000" d="M 124.691406 110.496094 L 0.421875 110.496094 L 0.421875 0.417969 L 124.691406 0.417969 Z M 124.691406 110.496094 " fill-opacity="1" fill-rule="nonzero"/></g></g></g></g></g></g><g clip-path="url(#4de0ce5f96)"><g clip-path="url(#7353c0b1ec)"><g transform="matrix(1, 0, 0, 1, 1162, 1)"><g clip-path="url(#07f49594c4)"><g clip-path="url(#e49d13c7c4)"><g clip-path="url(#174ce46d95)"><path fill="#000000" d="M 124.9375 110.824219 L 0.667969 110.824219 L 0.667969 0.742188 L 124.9375 0.742188 Z M 124.9375 110.824219 " fill-opacity="1" fill-rule="nonzero"/></g></g></g></g></g></g><path stroke-linecap="butt" transform="matrix(0.361084, -0.656622, 0.656622, 0.361084, 650.851445, 733.155319)" fill="none" stroke-linejoin="miter" d="M -0.00077342 6.502871 L 177.344125 6.501079 " stroke="#000000" stroke-width="13" stroke-opacity="1" stroke-miterlimit="4"/><path stroke-linecap="butt" transform="matrix(0.361084, -0.656622, 0.656622, 0.361084, 646.628652, 722.273548)" fill="none" stroke-linejoin="miter" d="M 0.000532663 6.50236 L 177.338351 6.498513 " stroke="#000000" stroke-width="13" stroke-opacity="1" stroke-miterlimit="4"/><path stroke-linecap="butt" transform="matrix(0.361084, -0.656622, 0.656622, 0.361084, 642.893168, 713.665622)" fill="none" stroke-linejoin="miter" d="M 0.000428266 6.498157 L 177.340758 6.498878 " stroke="#000000" stroke-width="13" stroke-opacity="1" stroke-miterlimit="4"/><g clip-path="url(#53db082d5d)"><g clip-path="url(#168bcc5443)"><g clip-path="url(#bb36ecca31)"><g transform="matrix(1, 0, 0, 1, 623, 665)"><g clip-path="url(#71c0077896)"><g clip-path="url(#ea4f46978e)"><g clip-path="url(#719c9f2966)"><g clip-path="url(#31127b5b1f)"><path fill="#000000" d="M 44.902344 -17.65625 L 77.433594 60.910156 L 32.839844 79.375 L 0.304688 0.808594 Z M 44.902344 -17.65625 " fill-opacity="1" fill-rule="nonzero"/></g></g></g></g></g></g></g></g></svg>