<svg xmlns="http://www.w3.org/2000/svg" xmlns:xlink="http://www.w3.org/1999/xlink" width="3487" zoomAndPan="magnify" viewBox="0 0 2615.25 1760.999931" height="2348" preserveAspectRatio="xMidYMid meet" version="1.0"><defs><clipPath id="dd3e63d82e"><path d="M 0 0.253906 L 2614.5 0.253906 L 2614.5 1760.746094 L 0 1760.746094 Z M 0 0.253906 " clip-rule="nonzero"/></clipPath><clipPath id="0d65f56839"><path d="M 1349 0.253906 L 2361 0.253906 L 2361 1760.746094 L 1349 1760.746094 Z M 1349 0.253906 " clip-rule="nonzero"/></clipPath><clipPath id="a264356f1f"><path d="M 1603 0.253906 L 2614.5 0.253906 L 2614.5 1760.746094 L 1603 1760.746094 Z M 1603 0.253906 " clip-rule="nonzero"/></clipPath><clipPath id="66251281c3"><path d="M 1596 0.253906 L 2614.5 0.253906 L 2614.5 1760.746094 L 1596 1760.746094 Z M 1596 0.253906 " clip-rule="nonzero"/></clipPath><clipPath id="a18b3dd751"><path d="M 1346 0.253906 L 2363 0.253906 L 2363 1760.746094 L 1346 1760.746094 Z M 1346 0.253906 " clip-rule="nonzero"/></clipPath><clipPath id="1bec5f3fc9"><path d="M 2351 1758 L 2614.5 1758 L 2614.5 1760.746094 L 2351 1760.746094 Z M 2351 1758 " clip-rule="nonzero"/></clipPath><clipPath id="235609697b"><path d="M 0 0.253906 L 722 0.253906 L 722 1760.746094 L 0 1760.746094 Z M 0 0.253906 " clip-rule="nonzero"/></clipPath><clipPath id="36d2790548"><path d="M 242 299 L 848 299 L 848 1760.746094 L 242 1760.746094 Z M 242 299 " clip-rule="nonzero"/></clipPath><clipPath id="65b38bb331"><path d="M 944 0.253906 L 1475 0.253906 L 1475 1269 L 944 1269 Z M 944 0.253906 " clip-rule="nonzero"/></clipPath><clipPath id="f1f460d411"><path d="M 0 1758 L 253 1758 L 253 1760.746094 L 0 1760.746094 Z M 0 1758 " clip-rule="nonzero"/></clipPath><clipPath id="505de56f69"><path d="M 704 0.253906 L 962 0.253906 L 962 12 L 704 12 Z M 704 0.253906 " clip-rule="nonzero"/></clipPath><clipPath id="a14fc520ea"><path d="M 1345 0.253906 L 1614 0.253906 L 1614 13 L 1345 13 Z M 1345 0.253906 " clip-rule="nonzero"/></clipPath><clipPath id="dd2f3aab6c"><path d="M 1349 1750 L 1622 1750 L 1622 1760.746094 L 1349 1760.746094 Z M 1349 1750 " clip-rule="nonzero"/></clipPath><clipPath id="12e0ee1258"><path d="M 0 0.253906 L 1216 0.253906 L 1216 1760.746094 L 0 1760.746094 Z M 0 0.253906 " clip-rule="nonzero"/></clipPath><clipPath id="ecca32349c"><path d="M 0 0.253906 L 1302 0.253906 L 1302 1760.746094 L 0 1760.746094 Z M 0 0.253906 " clip-rule="nonzero"/></clipPath><clipPath id="116e5681d9"><path d="M 0 0.253906 L 1391 0.253906 L 1391 1760.746094 L 0 1760.746094 Z M 0 0.253906 " clip-rule="nonzero"/></clipPath><clipPath id="b17e6a97fe"><path d="M 450 0.253906 L 1892 0.253906 L 1892 1741 L 450 1741 Z M 450 0.253906 " clip-rule="nonzero"/></clipPath><clipPath id="1124dfaaf3"><path d="M 364 0.253906 L 1844 0.253906 L 1844 1760.746094 L 364 1760.746094 Z M 364 0.253906 " clip-rule="nonzero"/></clipPath><clipPath id="60dc4ddd7b"><path d="M 301 0.253906 L 1806 0.253906 L 1806 1760.746094 L 301 1760.746094 Z M 301 0.253906 " clip-rule="nonzero"/></clipPath><clipPath id="db012b8180"><path d="M 0 246 L 2167 246 L 2167 1760.746094 L 0 1760.746094 Z M 0 246 " clip-rule="nonzero"/></clipPath><clipPath id="daf0df89c5"><path d="M 0 205 L 2167 205 L 2167 1760.746094 L 0 1760.746094 Z M 0 205 " clip-rule="nonzero"/></clipPath><clipPath id="7cd1710ce5"><path d="M 954 0.253906 L 2614.5 0.253906 L 2614.5 1760.746094 L 954 1760.746094 Z M 954 0.253906 " clip-rule="nonzero"/></clipPath><clipPath id="7aaeedf820"><path d="M 1046 0.253906 L 2614.5 0.253906 L 2614.5 1760.746094 L 1046 1760.746094 Z M 1046 0.253906 " clip-rule="nonzero"/></clipPath><clipPath id="6674f3c722"><path d="M 1112 0.253906 L 2614.5 0.253906 L 2614.5 1760.746094 L 1112 1760.746094 Z M 1112 0.253906 " clip-rule="nonzero"/></clipPath><clipPath id="6af52f398a"><path d="M 952 0.253906 L 2614.5 0.253906 L 2614.5 1760.746094 L 952 1760.746094 Z M 952 0.253906 " clip-rule="nonzero"/></clipPath><clipPath id="922e2de9d4"><path d="M 1048 0.253906 L 2614.5 0.253906 L 2614.5 1760.746094 L 1048 1760.746094 Z M 1048 0.253906 " clip-rule="nonzero"/></clipPath><clipPath id="9b97a2b261"><path d="M 1106 0.253906 L 2614.5 0.253906 L 2614.5 1760.746094 L 1106 1760.746094 Z M 1106 0.253906 " clip-rule="nonzero"/></clipPath><clipPath id="3afd07923e"><path d="M 225.117188 1614.699219 L 241 1614.699219 L 241 1631 L 225.117188 1631 Z M 225.117188 1614.699219 " clip-rule="nonzero"/></clipPath><clipPath id="eeba700149"><path d="M 240.984375 1620.179688 C 238.84375 1629.078125 237.691406 1629.738281 236.535156 1630.230469 C 235.382812 1630.726562 234.0625 1631.222656 232.746094 1630.890625 C 230.769531 1630.5625 227.308594 1628.914062 226.15625 1626.9375 C 225 1624.960938 225 1621.167969 225.660156 1619.355469 C 226.15625 1618.039062 226.8125 1616.886719 228.132812 1616.226562 C 229.78125 1615.238281 233.734375 1614.414062 235.710938 1614.90625 C 237.03125 1615.070312 239.007812 1616.886719 239.007812 1616.886719 " clip-rule="nonzero"/></clipPath><clipPath id="044c543b37"><path d="M 0.117188 0.699219 L 16 0.699219 L 16 17 L 0.117188 17 Z M 0.117188 0.699219 " clip-rule="nonzero"/></clipPath><clipPath id="eaa51d7a89"><path d="M 15.984375 6.179688 C 13.84375 15.078125 12.691406 15.738281 11.535156 16.230469 C 10.382812 16.726562 9.0625 17.222656 7.746094 16.890625 C 5.769531 16.5625 2.308594 14.914062 1.15625 12.9375 C 0 10.960938 0 7.167969 0.660156 5.355469 C 1.15625 4.039062 1.8125 2.886719 3.132812 2.226562 C 4.78125 1.238281 8.734375 0.414062 10.710938 0.90625 C 12.03125 1.070312 14.007812 2.886719 14.007812 2.886719 " clip-rule="nonzero"/></clipPath><clipPath id="01eaedf24d"><rect x="0" width="16" y="0" height="17"/></clipPath><clipPath id="af1118e2a7"><path d="M 2353.972656 1541.742188 L 2613.664062 1541.742188 L 2613.664062 1759 L 2353.972656 1759 Z M 2353.972656 1541.742188 " clip-rule="nonzero"/></clipPath><clipPath id="94b33fb25a"><path d="M 2483.488281 1541.742188 L 2613.003906 1759 L 2353.972656 1759 Z M 2483.488281 1541.742188 " clip-rule="nonzero"/></clipPath><clipPath id="ff2909ea90"><path d="M 0.972656 0.742188 L 260 0.742188 L 260 218 L 0.972656 218 Z M 0.972656 0.742188 " clip-rule="nonzero"/></clipPath><clipPath id="43c96309bc"><path d="M 130.488281 0.742188 L 260.003906 218 L 0.972656 218 Z M 130.488281 0.742188 " clip-rule="nonzero"/></clipPath><clipPath id="9f20614e7c"><rect x="0" width="261" y="0" height="218"/></clipPath><clipPath id="e9450dd9f3"><path d="M 1357.574219 1541.75 L 1613 1541.75 L 1613 1759.007812 L 1357.574219 1759.007812 Z M 1357.574219 1541.75 " clip-rule="nonzero"/></clipPath><clipPath id="ffb82547fc"><path d="M 1484.945312 1541.75 L 1612.320312 1759.007812 L 1357.574219 1759.007812 Z M 1484.945312 1541.75 " clip-rule="nonzero"/></clipPath><clipPath id="866d69cf95"><path d="M 0.574219 0.75 L 255.335938 0.75 L 255.335938 218.007812 L 0.574219 218.007812 Z M 0.574219 0.75 " clip-rule="nonzero"/></clipPath><clipPath id="caba068aa0"><path d="M 127.945312 0.75 L 255.320312 218.007812 L 0.574219 218.007812 Z M 127.945312 0.75 " clip-rule="nonzero"/></clipPath><clipPath id="bd1031d9b0"><rect x="0" width="256" y="0" height="219"/></clipPath><clipPath id="703322dad7"><path d="M 1.441406 1468.8125 L 251.246094 1468.8125 L 251.246094 1759.601562 L 1.441406 1759.601562 Z M 1.441406 1468.8125 " clip-rule="nonzero"/></clipPath><clipPath id="238862f937"><path d="M 126.34375 1468.8125 L 251.246094 1759.351562 L 1.441406 1759.351562 Z M 126.34375 1468.8125 " clip-rule="nonzero"/></clipPath><clipPath id="fbdca06628"><path d="M 0.441406 0.8125 L 250.246094 0.8125 L 250.246094 291.429688 L 0.441406 291.429688 Z M 0.441406 0.8125 " clip-rule="nonzero"/></clipPath><clipPath id="1f7f55f252"><path d="M 125.34375 0.8125 L 250.246094 291.351562 L 0.441406 291.351562 Z M 125.34375 0.8125 " clip-rule="nonzero"/></clipPath><clipPath id="1500f09229"><rect x="0" width="251" y="0" height="292"/></clipPath><clipPath id="a482c77f42"><path d="M 713.867188 2 L 952.9375 2 L 952.9375 293.238281 L 713.867188 293.238281 Z M 713.867188 2 " clip-rule="nonzero"/></clipPath><clipPath id="6375f8e6f4"><path d="M 833.402344 293.238281 L 713.867188 2.703125 L 952.9375 2.703125 Z M 833.402344 293.238281 " clip-rule="nonzero"/></clipPath><clipPath id="8437aabd03"><path d="M 0.867188 0.652344 L 239.9375 0.652344 L 239.9375 291.238281 L 0.867188 291.238281 Z M 0.867188 0.652344 " clip-rule="nonzero"/></clipPath><clipPath id="6d5647e9a3"><path d="M 120.402344 291.238281 L 0.867188 0.703125 L 239.9375 0.703125 Z M 120.402344 291.238281 " clip-rule="nonzero"/></clipPath><clipPath id="49535025d8"><rect x="0" width="240" y="0" height="292"/></clipPath><clipPath id="27afbf7f8e"><path d="M 1354.367188 3.582031 L 1606.535156 3.582031 L 1606.535156 226.957031 L 1354.367188 226.957031 Z M 1354.367188 3.582031 " clip-rule="nonzero"/></clipPath><clipPath id="5d678cbef2"><path d="M 1480.605469 226.957031 L 1354.675781 3.582031 L 1606.535156 3.582031 Z M 1480.605469 226.957031 " clip-rule="nonzero"/></clipPath><clipPath id="7ca367621c"><path d="M 0.652344 0.582031 L 252.535156 0.582031 L 252.535156 223.957031 L 0.652344 223.957031 Z M 0.652344 0.582031 " clip-rule="nonzero"/></clipPath><clipPath id="d58812946e"><path d="M 126.605469 223.957031 L 0.675781 0.582031 L 252.535156 0.582031 Z M 126.605469 223.957031 " clip-rule="nonzero"/></clipPath><clipPath id="8a5080b017"><rect x="0" width="253" y="0" height="224"/></clipPath><clipPath id="23d3337404"><path d="M 2357.285156 2.210938 L 2609.457031 2.210938 L 2609.457031 225.589844 L 2357.285156 225.589844 Z M 2357.285156 2.210938 " clip-rule="nonzero"/></clipPath><clipPath id="2e2921b1c8"><path d="M 2483.523438 225.589844 L 2357.59375 2.210938 L 2609.457031 2.210938 Z M 2483.523438 225.589844 " clip-rule="nonzero"/></clipPath><clipPath id="e1b679497d"><path d="M 0.5625 0.210938 L 252.457031 0.210938 L 252.457031 223.589844 L 0.5625 223.589844 Z M 0.5625 0.210938 " clip-rule="nonzero"/></clipPath><clipPath id="70d610d82e"><path d="M 126.523438 223.589844 L 0.59375 0.210938 L 252.457031 0.210938 Z M 126.523438 223.589844 " clip-rule="nonzero"/></clipPath><clipPath id="57dacf50ad"><rect x="0" width="253" y="0" height="224"/></clipPath><clipPath id="2ce82a0343"><path d="M 1262 1349 L 1387 1349 L 1387 1510 L 1262 1510 Z M 1262 1349 " clip-rule="nonzero"/></clipPath><clipPath id="7749769ecc"><path d="M 1353.3125 1312.261719 L 1419.472656 1472.039062 L 1328.980469 1509.511719 L 1262.816406 1349.730469 Z M 1353.3125 1312.261719 " clip-rule="nonzero"/></clipPath><clipPath id="847df753d6"><path d="M 1386.332031 1392.003906 L 1328.855469 1509.21875 L 1262.816406 1349.730469 Z M 1386.332031 1392.003906 " clip-rule="nonzero"/></clipPath><clipPath id="6c1d155b57"><path d="M 0.757812 0.625 L 124.5625 0.625 L 124.5625 160.417969 L 0.757812 160.417969 Z M 0.757812 0.625 " clip-rule="nonzero"/></clipPath><clipPath id="6530e76c46"><path d="M 91.3125 -36.738281 L 157.472656 123.039062 L 66.980469 160.511719 L 0.816406 0.730469 Z M 91.3125 -36.738281 " clip-rule="nonzero"/></clipPath><clipPath id="8b36003456"><path d="M 124.332031 43.003906 L 66.855469 160.21875 L 0.816406 0.730469 Z M 124.332031 43.003906 " clip-rule="nonzero"/></clipPath><clipPath id="e21cebad55"><rect x="0" width="125" y="0" height="161"/></clipPath><clipPath id="ed5e1aa5a1"><rect x="0" width="2615" y="0" height="1761"/></clipPath></defs><g clip-path="url(#dd3e63d82e)"><g transform="matrix(1, 0, 0, 1, 0, -0.000000000000069278)"><g clip-path="url(#ed5e1aa5a1)"><g clip-path="url(#0d65f56839)"><path stroke-linecap="butt" transform="matrix(0.748593, -1.323552, 1.323552, 0.748593, 1357.455533, 1758.639612)" fill="none" stroke-linejoin="miter" d="M -0.00102201 0.500486 L 1327.492437 0.4987 " stroke="#000000" stroke-width="1" stroke-opacity="1" stroke-miterlimit="4"/></g><path stroke-linecap="butt" transform="matrix(1.520586, 0, 0, 1.520586, 2350.947651, 1.952095)" fill="none" stroke-linejoin="miter" d="M 0.00103134 0.499046 L 169.43358 0.499046 " stroke="#000000" stroke-width="1" stroke-opacity="1" stroke-miterlimit="4"/><g clip-path="url(#a264356f1f)"><path stroke-linecap="butt" transform="matrix(0.750622, -1.322402, 1.322402, 0.750622, 1611.386028, 1759.252108)" fill="none" stroke-linejoin="miter" d="M -0.000965683 0.50028 L 1328.579617 0.500359 " stroke="#000000" stroke-width="1" stroke-opacity="1" stroke-miterlimit="4"/></g><g clip-path="url(#66251281c3)"><path stroke-linecap="butt" transform="matrix(-0.756974, -1.318776, 1.318776, -0.756974, 2612.327145, 1759.152873)" fill="none" stroke-linejoin="miter" d="M -0.0000315709 0.501307 L 1331.419438 0.500479 " stroke="#000000" stroke-width="1" stroke-opacity="1" stroke-miterlimit="4"/></g><g clip-path="url(#a18b3dd751)"><path stroke-linecap="butt" transform="matrix(-0.75172, -1.321778, 1.321778, -0.75172, 2353.293074, 1760.554383)" fill="none" stroke-linejoin="miter" d="M -0.000393458 0.499142 L 1329.327847 0.500101 " stroke="#000000" stroke-width="1" stroke-opacity="1" stroke-miterlimit="4"/></g><g clip-path="url(#1bec5f3fc9)"><path stroke-linecap="butt" transform="matrix(-1.520586, -0.00000000265392, 0.00000000265392, -1.520586, 2613.815918, 1760.201756)" fill="none" stroke-linejoin="miter" d="M -0.000320879 0.500037 L 172.268305 0.500037 " stroke="#000000" stroke-width="1" stroke-opacity="1" stroke-miterlimit="4"/></g><g clip-path="url(#235609697b)"><path stroke-linecap="butt" transform="matrix(0.570942, -1.409328, 1.409328, 0.570942, -0.000320229, 1760.129704)" fill="none" stroke-linejoin="miter" d="M 0.000377226 0.498982 L 1247.610815 0.498811 " stroke="#000000" stroke-width="1" stroke-opacity="1" stroke-miterlimit="4"/></g><g clip-path="url(#36d2790548)"><path stroke-linecap="butt" transform="matrix(0.570614, -1.409461, 1.409461, 0.570614, 250.341538, 1759.152873)" fill="none" stroke-linejoin="miter" d="M 0.000564014 0.500202 L 1029.990283 0.500238 " stroke="#000000" stroke-width="1" stroke-opacity="1" stroke-miterlimit="4"/></g><path stroke-linecap="butt" transform="matrix(-0.573112, -1.408447, 1.408447, -0.573112, 1327.846993, 1511.650398)" fill="none" stroke-linejoin="miter" d="M 0.000449456 0.499873 L 854.595373 0.500495 " stroke="#000000" stroke-width="1" stroke-opacity="1" stroke-miterlimit="4"/><g clip-path="url(#65b38bb331)"><path stroke-linecap="butt" transform="matrix(-0.573694, -1.40821, 1.40821, -0.573694, 1464.881553, 1260.342398)" fill="none" stroke-linejoin="miter" d="M 0.000456512 0.500384 L 893.521987 0.499475 " stroke="#000000" stroke-width="1" stroke-opacity="1" stroke-miterlimit="4"/></g><path stroke-linecap="butt" transform="matrix(0.728331, -1.334809, 1.334809, 0.728331, 1326.986624, 1511.439042)" fill="none" stroke-linejoin="miter" d="M -0.00138508 0.499493 L 189.852361 0.500228 " stroke="#000000" stroke-width="1" stroke-opacity="1" stroke-miterlimit="4"/><path stroke-linecap="butt" transform="matrix(-1.520586, -0.000918337, 0.000918337, -1.520586, 1225.137589, 1259.153515)" fill="none" stroke-linejoin="miter" d="M 0.00087352 0.499139 L 507.527926 0.500894 " stroke="#000000" stroke-width="1" stroke-opacity="1" stroke-miterlimit="4"/><path stroke-linecap="butt" transform="matrix(-1.520586, 0, 0, -1.520586, 1142.303579, 1052.524133)" fill="none" stroke-linejoin="miter" d="M -0.000728878 0.498826 L 397.59225 0.498826 " stroke="#000000" stroke-width="1" stroke-opacity="1" stroke-miterlimit="4"/><g clip-path="url(#f1f460d411)"><path stroke-linecap="butt" transform="matrix(1.520586, -0.000000000000004149, 0.000000000000004149, 1.520586, 0.0455285, 1758.848736)" fill="none" stroke-linejoin="miter" d="M 0.000885523 0.500228 L 165.788149 0.500228 " stroke="#000000" stroke-width="1" stroke-opacity="1" stroke-miterlimit="4"/></g><g clip-path="url(#505de56f69)"><path stroke-linecap="butt" transform="matrix(1.520584, -0.00261141, 0.00261141, 1.520584, 713.015852, 2.548558)" fill="none" stroke-linejoin="miter" d="M -0.00100766 0.49983 L 157.784321 0.501069 " stroke="#000000" stroke-width="1" stroke-opacity="1" stroke-miterlimit="4"/></g><g clip-path="url(#a14fc520ea)"><path stroke-linecap="butt" transform="matrix(1.520584, -0.00199663, 0.00199663, 1.520584, 1354.031835, 2.834742)" fill="none" stroke-linejoin="miter" d="M -0.00104017 0.499154 L 165.061927 0.500104 " stroke="#000000" stroke-width="1" stroke-opacity="1" stroke-miterlimit="4"/></g><g clip-path="url(#dd2f3aab6c)"><path stroke-linecap="butt" transform="matrix(1.520581, -0.00392952, 0.00392952, 1.520581, 1358.230391, 1759.160958)" fill="none" stroke-linejoin="miter" d="M -0.00124191 0.500409 L 167.738951 0.49974 " stroke="#000000" stroke-width="1" stroke-opacity="1" stroke-miterlimit="4"/></g><g clip-path="url(#12e0ee1258)"><path stroke-linecap="butt" transform="matrix(0.570165, -1.409643, 1.409643, 0.570165, 14.677704, 1728.519347)" fill="none" stroke-linejoin="miter" d="M -0.000113821 27.000198 L 1224.320338 26.999075 " stroke="#000000" stroke-width="54" stroke-opacity="1" stroke-miterlimit="4"/></g><g clip-path="url(#ecca32349c)"><path stroke-linecap="butt" transform="matrix(0.570165, -1.409643, 1.409643, 0.570165, 101.24951, 1729.499922)" fill="none" stroke-linejoin="miter" d="M -0.000417466 26.999262 L 1224.320997 27.00052 " stroke="#000000" stroke-width="54" stroke-opacity="1" stroke-miterlimit="4"/></g><g clip-path="url(#116e5681d9)"><path stroke-linecap="butt" transform="matrix(0.581176, -1.405139, 1.405139, 0.581176, 174.534179, 1727.21309)" fill="none" stroke-linejoin="miter" d="M -0.000926455 27.000186 L 1227.777233 26.999868 " stroke="#000000" stroke-width="54" stroke-opacity="1" stroke-miterlimit="4"/></g><g clip-path="url(#b17e6a97fe)"><path stroke-linecap="butt" transform="matrix(-0.573694, -1.40821, 1.40821, -0.573694, 1389.412543, 1291.835813)" fill="none" stroke-linejoin="miter" d="M -0.000810766 26.999226 L 893.523098 26.999286 " stroke="#000000" stroke-width="54" stroke-opacity="1" stroke-miterlimit="4"/></g><g clip-path="url(#1124dfaaf3)"><path stroke-linecap="butt" transform="matrix(-0.575521, -1.407465, 1.407465, -0.575521, 1340.51356, 1378.34624)" fill="none" stroke-linejoin="miter" d="M -0.00100145 26.999962 L 954.247387 26.999219 " stroke="#000000" stroke-width="54" stroke-opacity="1" stroke-miterlimit="4"/></g><g clip-path="url(#60dc4ddd7b)"><path stroke-linecap="butt" transform="matrix(-0.57338, -1.408338, 1.408338, -0.57338, 1302.906099, 1447.521159)" fill="none" stroke-linejoin="miter" d="M 0.000888818 26.999268 L 1003.24409 27.000319 " stroke="#000000" stroke-width="54" stroke-opacity="1" stroke-miterlimit="4"/></g><g clip-path="url(#db012b8180)"><path stroke-linecap="butt" transform="matrix(-1.520586, -0.000918337, 0.000918337, -1.520586, 1237.574302, 1257.646915)" fill="none" stroke-linejoin="miter" d="M -0.0007288 54.000093 L 507.526322 53.99928 " stroke="#000000" stroke-width="108" stroke-opacity="1" stroke-miterlimit="4"/></g><g clip-path="url(#daf0df89c5)"><path stroke-linecap="butt" transform="matrix(-1.520586, -0.000918337, 0.000918337, -1.520586, 1237.623967, 1216.73349)" fill="none" stroke-linejoin="miter" d="M 0.00110677 54.000511 L 507.525589 53.999699 " stroke="#000000" stroke-width="108" stroke-opacity="1" stroke-miterlimit="4"/></g><g clip-path="url(#7cd1710ce5)"><path stroke-linecap="butt" transform="matrix(0.748908, -1.323374, 1.323374, 0.748908, 1383.628426, 1713.608584)" fill="none" stroke-linejoin="miter" d="M 0.000514462 26.999603 L 1294.687968 26.999316 " stroke="#000000" stroke-width="54" stroke-opacity="1" stroke-miterlimit="4"/></g><g clip-path="url(#7aaeedf820)"><path stroke-linecap="butt" transform="matrix(0.739769, -1.328504, 1.328504, 0.739769, 1475.056147, 1700.965338)" fill="none" stroke-linejoin="miter" d="M 0.000931169 26.999503 L 1275.107882 26.999793 " stroke="#000000" stroke-width="54" stroke-opacity="1" stroke-miterlimit="4"/></g><g clip-path="url(#6674f3c722)"><path stroke-linecap="butt" transform="matrix(0.749848, -1.322841, 1.322841, 0.749848, 1541.322956, 1718.529644)" fill="none" stroke-linejoin="miter" d="M -0.00122127 27.000237 L 1297.023127 26.999255 " stroke="#000000" stroke-width="54" stroke-opacity="1" stroke-miterlimit="4"/></g><g clip-path="url(#6af52f398a)"><path stroke-linecap="butt" transform="matrix(-0.751332, -1.321999, 1.321999, -0.751332, 2353.580559, 1759.597825)" fill="none" stroke-linejoin="miter" d="M -0.0000125916 26.999167 L 1293.949745 27.001019 " stroke="#000000" stroke-width="54" stroke-opacity="1" stroke-miterlimit="4"/></g><g clip-path="url(#922e2de9d4)"><path stroke-linecap="butt" transform="matrix(-0.75118, -1.322085, 1.322085, -0.75118, 2444.501833, 1757.283089)" fill="none" stroke-linejoin="miter" d="M 0.000348617 27.001017 L 1287.806851 27.000772 " stroke="#000000" stroke-width="54" stroke-opacity="1" stroke-miterlimit="4"/></g><g clip-path="url(#9b97a2b261)"><path stroke-linecap="butt" transform="matrix(-0.756397, -1.319108, 1.319108, -0.756397, 2515.524031, 1755.064205)" fill="none" stroke-linejoin="miter" d="M 0.000267587 27.000677 L 1295.993591 27.000784 " stroke="#000000" stroke-width="54" stroke-opacity="1" stroke-miterlimit="4"/></g><g clip-path="url(#3afd07923e)"><g clip-path="url(#eeba700149)"><g transform="matrix(1, 0, 0, 1, 225, 1614)"><g clip-path="url(#01eaedf24d)"><g clip-path="url(#044c543b37)"><g clip-path="url(#eaa51d7a89)"><rect x="-1176.951" width="4519.152" fill="#000000" y="-2255.003975" height="3043.007881" fill-opacity="1"/></g></g></g></g></g></g><g clip-path="url(#af1118e2a7)"><g clip-path="url(#94b33fb25a)"><g transform="matrix(1, 0, 0, 1, 2353, 1541)"><g clip-path="url(#9f20614e7c)"><g clip-path="url(#ff2909ea90)"><g clip-path="url(#43c96309bc)"><path fill="#000000" d="M 0.972656 0.742188 L 259.8125 0.742188 L 259.8125 218 L 0.972656 218 Z M 0.972656 0.742188 " fill-opacity="1" fill-rule="nonzero"/></g></g></g></g></g></g><g clip-path="url(#e9450dd9f3)"><g clip-path="url(#ffb82547fc)"><g transform="matrix(1, 0, 0, 1, 1357, 1541)"><g clip-path="url(#bd1031d9b0)"><g clip-path="url(#866d69cf95)"><g clip-path="url(#caba068aa0)"><path fill="#000000" d="M 0.574219 0.75 L 255.171875 0.75 L 255.171875 218.007812 L 0.574219 218.007812 Z M 0.574219 0.75 " fill-opacity="1" fill-rule="nonzero"/></g></g></g></g></g></g><g clip-path="url(#703322dad7)"><g clip-path="url(#238862f937)"><g transform="matrix(1, 0, 0, 1, 1, 1468)"><g clip-path="url(#1500f09229)"><g clip-path="url(#fbdca06628)"><g clip-path="url(#1f7f55f252)"><path fill="#000000" d="M 0.441406 0.8125 L 250.246094 0.8125 L 250.246094 291.601562 L 0.441406 291.601562 Z M 0.441406 0.8125 " fill-opacity="1" fill-rule="nonzero"/></g></g></g></g></g></g><g clip-path="url(#a482c77f42)"><g clip-path="url(#6375f8e6f4)"><g transform="matrix(1, 0, 0, 1, 713, 2)"><g clip-path="url(#49535025d8)"><g clip-path="url(#8437aabd03)"><g clip-path="url(#6d5647e9a3)"><path fill="#000000" d="M 239.9375 291.238281 L 0.867188 291.238281 L 0.867188 0.808594 L 239.9375 0.808594 Z M 239.9375 291.238281 " fill-opacity="1" fill-rule="nonzero"/></g></g></g></g></g></g><g clip-path="url(#27afbf7f8e)"><g clip-path="url(#5d678cbef2)"><g transform="matrix(1, 0, 0, 1, 1354, 3)"><g clip-path="url(#8a5080b017)"><g clip-path="url(#7ca367621c)"><g clip-path="url(#d58812946e)"><path fill="#000000" d="M 252.535156 223.957031 L 0.367188 223.957031 L 0.367188 0.582031 L 252.535156 0.582031 Z M 252.535156 223.957031 " fill-opacity="1" fill-rule="nonzero"/></g></g></g></g></g></g><g clip-path="url(#23d3337404)"><g clip-path="url(#2e2921b1c8)"><g transform="matrix(1, 0, 0, 1, 2357, 2)"><g clip-path="url(#57dacf50ad)"><g clip-path="url(#e1b679497d)"><g clip-path="url(#70d610d82e)"><path fill="#000000" d="M 252.457031 223.589844 L 0.285156 223.589844 L 0.285156 0.210938 L 252.457031 0.210938 Z M 252.457031 223.589844 " fill-opacity="1" fill-rule="nonzero"/></g></g></g></g></g></g><path stroke-linecap="butt" transform="matrix(0.732708, -1.332412, 1.332412, 0.732708, 1318.712861, 1486.390011)" fill="none" stroke-linejoin="miter" d="M 0.000617271 6.500759 L 177.339883 6.500516 " stroke="#000000" stroke-width="13" stroke-opacity="1" stroke-miterlimit="4"/><path stroke-linecap="butt" transform="matrix(0.732708, -1.332412, 1.332412, 0.732708, 1310.144103, 1464.308976)" fill="none" stroke-linejoin="miter" d="M 0.000699034 6.499548 L 177.339965 6.499304 " stroke="#000000" stroke-width="13" stroke-opacity="1" stroke-miterlimit="4"/><path stroke-linecap="butt" transform="matrix(0.732708, -1.332412, 1.332412, 0.732708, 1302.564005, 1446.841794)" fill="none" stroke-linejoin="miter" d="M -0.0000232426 6.501426 L 177.341494 6.499944 " stroke="#000000" stroke-width="13" stroke-opacity="1" stroke-miterlimit="4"/><g clip-path="url(#2ce82a0343)"><g clip-path="url(#7749769ecc)"><g clip-path="url(#847df753d6)"><g transform="matrix(1, 0, 0, 1, 1262, 1349)"><g clip-path="url(#e21cebad55)"><g clip-path="url(#6c1d155b57)"><g clip-path="url(#6530e76c46)"><g clip-path="url(#8b36003456)"><path fill="#000000" d="M 91.3125 -36.738281 L 157.328125 122.6875 L 66.832031 160.160156 L 0.816406 0.730469 Z M 91.3125 -36.738281 " fill-opacity="1" fill-rule="nonzero"/></g></g></g></g></g></g></g></g></g></g></g></svg>